<svg xmlns="http://www.w3.org/2000/svg" xmlns:xlink="http://www.w3.org/1999/xlink" xmlns:v="http://vecta.io" width="54" height="46" viewBox="0 0 54 46">
    <style>
        <![CDATA[svg{stroke:#000;stroke-linecap:round;stroke-linejoin:round;fill:#fff;fill-rule:evenodd;font-family:Roboto;font-size:14px;text-anchor:middle}svg text{paint-order:stroke;white-space:pre}svg .Text\.cls{stroke:none}]]>
    </style>
    <defs>
        <radialGradient id="R845050505000096d510000387f.grad" cx="50%" cy="50%" r="84%" fx="50%" fy="50%">
            <stop offset="0%" stop-color="#0096d5"/>
            <stop offset="100%" stop-color="#00387f"/>
        </radialGradient>
    </defs>
    <g transform="translate(0 0)">
        <g >
            <g>
                <g >
                    <g transform="translate(0 13.1482)">
                        <path d="M 53.5046 0 C 53.5046 7.3659 41.4934 13.3508 26.5703 13.3508 C 12.0112 13.3508 0 7.3659 0 0 L 0 19.3356 C 0 26.7015 12.0112 32.6862 26.5703 32.6862 C 41.4934 32.6862 53.5046 26.7015 53.5046 19.3356 Z" stroke="none" fill="url(#R845050505000096d510000387f.grad)"/>
                    </g>
                    <g transform="translate(0 0.2577)">
                        <path d="M 26.3197 26.2412 C 41.1019 26.2412 52.9998 20.2563 52.9998 12.8904 C 52.9998 5.9849 41.1019 0 26.3197 0 C 11.898 0 0 5.9849 0 12.8904 C 0 20.2563 11.898 26.2412 26.3197 26.2412 Z" stroke="none" fill="#000000"/>
                    </g>
                    <g>
                        <path d="M 26.3197 26.2412 C 41.1019 26.2412 52.9998 20.2563 52.9998 13.3509 C 52.9998 5.9848 41.1019 0 26.3197 0 C 11.898 0 0 5.9848 0 13.3509 C 0 20.2563 11.898 26.2412 26.3197 26.2412 Z" stroke="none" fill="#0096d5" fill-opacity="0.92"/>
                    </g>
                    <g transform="translate(3.2491 2.2944)">
                        <path d="M 17.3063 5.0642 L 19.4695 9.2075 L 11.177 11.9697 L 12.9797 9.6679 L 0 6.9056 L 3.2449 4.1434 L 15.5035 6.9056 L 17.3063 5.0642 Z M 28.8437 15.1923 L 27.4016 11.0492 L 34.9731 9.2075 L 33.5309 10.5886 L 45.7895 13.351 L 42.9052 16.5736 L 30.6465 13.351 L 28.8437 15.1923 Z M 24.8778 2.7623 L 33.1703 0 L 33.1703 4.6037 L 31.0071 4.1434 L 27.0411 8.2868 L 23.075 7.8264 L 27.4016 3.2227 L 24.8778 2.7623 Z M 21.2723 19.3357 L 13.3403 21.1773 L 12.9797 16.5736 L 15.143 17.0339 L 19.4695 12.4302 L 23.4357 13.351 L 18.7485 18.4151 L 21.2723 19.3357 Z" stroke="#ffffff" stroke-linejoin="miter" stroke-opacity="0" stroke-width="0.39350000000000007" fill="#ffffff" fill-opacity="1"/>
                    </g>
                </g>
            </g>
            <g transform="translate(8.8144 28.5962)">
                <path d="M 6.0635 6.7744 L 8.1143 6.7744 Q 7.998 8.3809 6.9282 9.3037 Q 5.8584 10.2266 4.1084 10.2266 Q 2.1943 10.2266 1.0972 8.938 Q 0 7.6494 0 5.4004 L 0 4.792 Q 0 3.3564 0.5059 2.2627 Q 1.0117 1.1689 1.9517 0.5845 Q 2.8916 0 4.1357 0 Q 5.8584 0 6.9111 0.9229 Q 7.9639 1.8457 8.1279 3.5137 L 6.0771 3.5137 Q 6.002 2.5498 5.5405 2.1157 Q 5.0791 1.6816 4.1357 1.6816 Q 3.1104 1.6816 2.6011 2.4165 Q 2.0918 3.1514 2.0781 4.6963 L 2.0781 5.4482 Q 2.0781 7.0615 2.5669 7.8066 Q 3.0557 8.5518 4.1084 8.5518 Q 5.0586 8.5518 5.5269 8.1177 Q 5.9951 7.6836 6.0635 6.7744 Z" stroke-width="0.5" stroke="#ffffff" fill="#e0e0e0"/>
            </g>
            <g transform="translate(18.2754 28.7329)">
                <path d="M 2.0508 0 L 2.0508 8.3057 L 6.4053 8.3057 L 6.4053 9.9531 L 0 9.9531 L 0 0 L 2.0508 0 Z" stroke-width="0.5" stroke="#ffffff" fill="#e0e0e0"/>
            </g>
            <g transform="translate(25.9863 28.7329)">
                <path d="M 2.0508 0 L 2.0508 9.9531 L 0 9.9531 L 0 0 L 2.0508 0 Z" stroke-width="0.5" stroke="#ffffff" fill="#e0e0e0"/>
            </g>
            <g transform="translate(29.6366 28.5962)">
                <path d="M 6.0635 6.7744 L 8.1143 6.7744 Q 7.998 8.3809 6.9282 9.3037 Q 5.8584 10.2266 4.1084 10.2266 Q 2.1943 10.2266 1.0972 8.938 Q 0 7.6494 0 5.4004 L 0 4.792 Q 0 3.3564 0.5059 2.2627 Q 1.0117 1.1689 1.9517 0.5845 Q 2.8916 0 4.1357 0 Q 5.8584 0 6.9111 0.9229 Q 7.9639 1.8457 8.1279 3.5137 L 6.0771 3.5137 Q 6.002 2.5498 5.5405 2.1157 Q 5.0791 1.6816 4.1357 1.6816 Q 3.1104 1.6816 2.6011 2.4165 Q 2.0918 3.1514 2.0781 4.6963 L 2.0781 5.4482 Q 2.0781 7.0615 2.5669 7.8066 Q 3.0557 8.5518 4.1084 8.5518 Q 5.0586 8.5518 5.5269 8.1177 Q 5.9951 7.6836 6.0635 6.7744 Z" stroke-width="0.5" stroke="#ffffff" fill="#e0e0e0"/>
            </g>
            <g transform="translate(39.0976 28.7329)">
                <path d="M 5.6738 9.9531 L 3.1172 5.9609 L 2.0508 7.1094 L 2.0508 9.9531 L 0 9.9531 L 0 0 L 2.0508 0 L 2.0508 4.5117 L 2.9531 3.2744 L 5.4893 0 L 8.0117 0 L 4.4775 4.4229 L 8.1143 9.9531 L 5.6738 9.9531 Z" stroke-width="0.5" stroke="#ffffff" fill="#e0e0e0"/>
            </g>
        </g>
    </g>
</svg>