<svg xmlns="http://www.w3.org/2000/svg" xmlns:xlink="http://www.w3.org/1999/xlink" xmlns:v="http://vecta.io" width="61" height="39" viewBox="0 0 61 39">
    <style>
        <![CDATA[svg{stroke:#000;stroke-linecap:round;stroke-linejoin:round;fill:#fff;fill-rule:evenodd;font-family:Roboto;font-size:14px;text-anchor:middle;}svg text{paint-order:stroke;white-space:pre;}svg .Text\.cls{stroke:none;}]]>
    </style>
    <defs>
        <linearGradient id="L001001000ffffff100100c7c7c7100.grad" x1="0%" y1="0%" x2="100%" y2="100%">
            <stop offset="0%" stop-color="#ffffff" stop-opacity="1"/>
            <stop offset="100%" stop-color="#c7c7c7" stop-opacity="1"/>
        </linearGradient>
    </defs>
    <g fill="url(#L001001000ffffff100100c7c7c7100.grad)" transform="translate(1 1)" stroke-width="2">
        <g>
            <g>
                <path d="M 20.2819 4.1238 C 10.1076 2.0394 4.574 7.535 5.4664 12.4614 L 5.4664 12.6512 C -2.5655 14.1668 -0.4238 24.2101 3.5033 24.2101 L 3.8604 24.2101 C 2.7892 28.9469 12.2491 33.6845 17.4259 31.221 L 17.7829 30.842 C 19.5679 35.2001 26.3501 35.7688 32.7762 35.9585 C 38.4882 36.1484 41.7005 35.7688 44.1997 33.1157 L 44.5565 33.1157 C 53.6596 33.8736 57.7652 27.242 55.8018 22.5044 L 56.3376 22.3146 C 59.3719 21.5567 59.7285 13.9768 54.3741 12.8405 L 54.553 12.4612 C 56.8734 7.5341 51.34 2.987 43.8427 3.7448 L 43.308 3.5548 C 37.9526 -1.7503 22.4236 -0.803 20.6387 4.3136 Z" fill="url(#L001001000ffffff100100c7c7c7100.grad)" fill-opacity="1" stroke="none" stroke-width="2"/>
            </g>
            <g>
                <path d="M 20.2819 4.1238 C 10.1076 2.0394 4.574 7.535 5.4664 12.4614 L 5.4664 12.6512 C -2.5655 14.1668 -0.4238 24.2101 3.5033 24.2101 L 3.8604 24.2101 C 2.7892 28.9469 12.2491 33.6845 17.4259 31.221 L 17.7829 30.842 C 19.5679 35.2001 26.3501 35.7688 32.7762 35.9585 C 38.4882 36.1484 41.7005 35.7688 44.1997 33.1157 L 44.5565 33.1157 C 53.6596 33.8736 57.7652 27.242 55.8018 22.5044 L 56.3376 22.3146 C 59.3719 21.5567 59.7285 13.9768 54.3741 12.8405 L 54.553 12.4612 C 56.8734 7.5341 51.34 2.987 43.8427 3.7448 L 43.308 3.5548 C 37.9526 -1.7503 22.4236 -0.803 20.6387 4.3136 Z" fill="url(#L001001000ffffff100100c7c7c7100.grad)" fill-opacity="1" stroke="#0f73a0" stroke-width="2"/>
            </g>
        </g>
    </g>
</svg>