<svg xmlns="http://www.w3.org/2000/svg" id="draw.id" fill="#ffffff" overflow="visible" stroke="#000000" v:layers="{&quot;default&quot;:{&quot;name&quot;:&quot;Default&quot;,&quot;print&quot;:0,&quot;display&quot;:1,&quot;publish&quot;:0}}" v:ver="3" x="500.5" y="500.5" v:stencils="{&quot;0&quot;:{&quot;id&quot;:&quot;stencil_25&quot;,&quot;expand&quot;:1,&quot;show_name&quot;:1},&quot;1&quot;:{&quot;id&quot;:&quot;stencil_65&quot;,&quot;expand&quot;:1,&quot;show_name&quot;:1}}" xmlns:v="http://vecta.io"><style xmlns="http://www.w3.org/1999/xhtml"><![CDATA[#draw\.id{stroke:#000;stroke-linecap:round;stroke-linejoin:round;fill:#fff;fill-rule:evenodd;font-family:Roboto;font-size:14px;text-anchor:middle}#draw\.id text{paint-order:stroke;white-space:pre}#draw\.id .Text\.cls{stroke:none}]]></style><defs><style type="text/css">@import url("https://fonts.googleapis.com/css?family=Roboto+Condensed:400,400i,700,700i"); @import url("https://fonts.googleapis.com/css?family=Roboto:400,400i,700,700i"); @import url("https://fonts.googleapis.com/css?family=Cousine:400,400i,700,700i"); @import url("https://fonts.googleapis.com/css?family=Anonymous+Pro:400,400i,700,700i"); @import url("https://fonts.googleapis.com/css?family=Lato:400,400i,700,700i"); @import url("https://fonts.googleapis.com/css?family=Open+Sans:400,400i,700,700i");</style><linearGradient id="L001001000D7D7D7100100626262100.grad" x1="0%" y1="0%" x2="100%" y2="100%"><stop offset="0%" stop-color="#D7D7D7" stop-opacity="1"/><stop offset="100%" stop-color="#626262" stop-opacity="1"/></linearGradient></defs><title xmlns="http://www.w3.org/1999/xhtml">edit2</title><desc xmlns="http://www.w3.org/1999/xhtml"></desc><svg height="952.4409713745117" id="kv88bbha149" overflow="visible" v:setup="{&quot;paper&quot;:&quot;CUSTOM&quot;,&quot;unit&quot;:&quot;px&quot;,&quot;scale&quot;:{&quot;from&quot;:1,&quot;to&quot;:1},&quot;width&quot;:&quot;297mm&quot;,&quot;height&quot;:&quot;210mm&quot;}" viewBox="0 0 1122.5197162628174 793.7008094787598" width="1347.0236595153808"><g id="kvp693qp14o" class="Group.cls NoPrint.cls" transform="translate(20 15)" v:abox="{&quot;x&quot;:20,&quot;y&quot;:15,&quot;width&quot;:323.75980000000004,&quot;height&quot;:280.6496}"><g class="Prim.cls"><g id="kvp610nanc" class="NoPrint.cls" transform="translate(160 20.6496)"><path d="M 0 110 L 130 5 L 135 0 L 140 0 L 145 0" fill="none" stroke="#a2a2a2" stroke-linecap="butt" stroke-width="30"/></g><g id="kvp4z3xbyn" class="NoPrint.cls" transform="translate(4.7832 60.6496)"><path d="M 0 0 L 275.2168 0 L 275.2168 215 L 0 215 Z" fill="url(#L001001000D7D7D7100100626262100.grad)" fill-rule="nonzero" stroke="none" stroke-dasharray="none" stroke-linecap="butt" stroke-linejoin="miter" stroke-width="5"/><g transform="translate(0 0)" class="Text.cls"><rect x="0" y="0" width="275.21680000000003" height="215" fill="none" stroke="none"/><text fill="#000000" fill-opacity="1" class=""/></g></g><g id="kvp4z3xcyo" class="NoPrint.cls" transform="translate(125 121.7854)"><path d="M 0 38.8642 L 44.6826 24.1885 L 16.8792 0 Z" fill="#f4aa41" fill-rule="nonzero" stroke="none" stroke-linecap="butt" stroke-linejoin="miter" stroke-width="2.0833"/></g><g id="kvp4z3xdyp" class="NoPrint.cls" transform="translate(144.5444 0)"><path d="M 152.9226 0 L 179.2154 20.8581 L 26.2928 142.1713 L 0 121.3132 Z" fill="url(#R845050505000096d510010000387f100.grad)" fill-rule="nonzero" stroke="none" stroke-linecap="butt" stroke-linejoin="miter" stroke-width="9"/></g><g id="kvp59tpq34x" class="NoPrint.cls" transform="translate(0 50.6496)"><path d="M 225 0 L 210 0 L 160 0 L 1e-13 1e-13 L 0 230" fill="none" stroke="#000" stroke-width="20"/></g><g id="kvp5abxa36q" class="NoPrint.cls" transform="translate(0 280.6496)"><path d="M 1e-13 1e-13 L 290 0" fill="none" stroke="#000" stroke-width="20"/></g><g id="kvp5aosk36u" class="NoPrint.cls" transform="translate(290 55.6496)"><path d="M 0 225 L 0 55 L 1e-13 1e-13" fill="none" stroke="#000" stroke-width="20"/></g><g id="kvp5au9w3do" class="NoPrint.cls" transform="translate(145 0.6496)"><path d="M 0 115 L 145 0" fill="none" stroke="#000" stroke-width="20"/></g><g id="kvp5ayx03dq" class="NoPrint.cls" transform="translate(180 25.6496)"><path d="M 0 115 L 140 0" fill="none" stroke="#000" stroke-width="20"/></g><g id="kvp5b21o3ds" class="NoPrint.cls" transform="translate(289.5176 6.7758) rotate(15 16.48361396186033 7.430370840971278)"><path d="M 1e-13 1e-13 L 32.9672 14.8607" fill="none" stroke="#000" stroke-width="20"/></g><g id="kvp5b5d73du" class="NoPrint.cls" transform="translate(145 120.6496)"><path d="M 1e-13 1e-13 L 30 25" fill="none" stroke="#000" stroke-width="15"/></g><g id="kvp5jqxf3ld" class="NoPrint.cls" transform="translate(115 115.6496)"><path d="M 25 0 L 0 55" fill="none" stroke="#000" stroke-width="15"/></g><g id="kvp5jx7w3lf" class="NoPrint.cls" transform="translate(115 145.6496)"><path d="M 60 0 L 0 25" fill="none" stroke="#000" stroke-width="15"/></g></g></g></svg></svg>