<svg xmlns="http://www.w3.org/2000/svg" xmlns:xlink="http://www.w3.org/1999/xlink" xmlns:v="http://vecta.io" width="54" height="46" viewBox="0 0 54 46">
    <style>
        <![CDATA[svg{stroke:#000;stroke-linecap:round;stroke-linejoin:round;fill:#fff;fill-rule:evenodd;font-family:Roboto;font-size:14px;text-anchor:middle}svg text{paint-order:stroke;white-space:pre}svg .Text\.cls{stroke:none}]]>
    </style>
    <defs>
        <radialGradient id="R845050505000096d510000387f.grad" cx="50%" cy="50%" r="84%" fx="50%" fy="50%">
            <stop offset="0%" stop-color="#0096d5"/>
            <stop offset="100%" stop-color="#00387f"/>
        </radialGradient>
    </defs>
    <g>
        <g >
            <g>
                <g >
                    <g transform="translate(0 13.1957)">
                        <path d="M 54 0 C 54 7.3926 41.8776 13.3989 26.8164 13.3989 C 12.1224 13.3989 0 7.3926 0 0 L 0 19.4055 C 0 26.7981 12.1224 32.8043 26.8164 32.8043 C 41.8776 32.8043 54 26.7981 54 19.4055 Z" stroke="none" fill="url(#R845050505000096d510000387f.grad)" fill-opacity="1"/>
                    </g>
                    <g transform="translate(0 0.2586)">
                        <path d="M 26.8164 26.336 C 41.8776 26.336 54 20.3295 54 12.9369 C 54 6.0065 41.8776 0 26.8164 0 C 12.1224 0 0 6.0065 0 12.9369 C 0 20.3295 12.1224 26.336 26.8164 26.336 Z" stroke="none" fill="#000000" fill-opacity="1"/>
                    </g>
                    <g>
                        <path d="M 26.8164 26.336 C 41.8776 26.336 54 20.3295 54 13.3989 C 54 6.0065 41.8776 0 26.8164 0 C 12.1224 0 0 6.0065 0 13.3989 C 0 20.3295 12.1224 26.336 26.8164 26.336 Z" stroke="none" fill="#0096d5" fill-opacity="0.92"/>
                    </g>
                    <g transform="translate(3.3105 2.3028)">
                        <path d="M 17.6329 5.0824 L 19.8369 9.2407 L 11.3878 12.013 L 13.2247 9.7027 L 0 6.9306 L 3.3062 4.1583 L 15.7962 6.9306 L 17.6329 5.0824 Z M 29.3881 15.2473 L 27.9187 11.089 L 35.6329 9.2407 L 34.1636 10.6269 L 46.6535 13.3991 L 43.7148 16.6334 L 31.2249 13.3991 L 29.3881 15.2473 Z M 25.3472 2.7722 L 33.7963 0 L 33.7963 4.6203 L 31.5922 4.1583 L 27.5513 8.3166 L 23.5105 7.8546 L 27.9187 3.2343 L 25.3472 2.7722 Z M 21.6737 19.4055 L 13.592 21.2538 L 13.2247 16.6334 L 15.4288 17.0954 L 19.8369 12.475 L 23.8777 13.3991 L 19.1023 18.4816 L 21.6737 19.4055 Z" stroke="#ffffff" stroke-opacity="1" fill="#e0e0e0" fill-opacity="1"/>
                    </g>
                </g>
            </g>
            <g transform="translate(7 29.1025)">
                <path d="M 8.0938 0 L 8.0938 9.9531 L 6.043 9.9531 L 2.0508 3.4043 L 2.0508 9.9531 L 0 9.9531 L 0 0 L 2.0508 0 L 6.0498 6.5625 L 6.0498 0 L 8.0938 0 Z" stroke-width="0.5" stroke="#ffffff" fill="#e0e0e0"/>
            </g>
            <g transform="translate(16.1671 29.1025)">
                <path d="M 7.1504 9.9531 L 6.46 7.9023 L 2.8643 7.9023 L 2.1807 9.9531 L 0 9.9531 L 3.7051 0 L 5.6055 0 L 9.3311 9.9531 L 7.1504 9.9531 Z M 4.6553 2.5156 L 3.418 6.2412 L 5.9063 6.2412 L 4.6553 2.5156 Z" stroke-width="0.5" stroke="#ffffff" fill="#e0e0e0"/>
            </g>
            <g transform="translate(24.9094 29.0941)">
                <path d="M 8.1074 0 L 8.1074 1.6611 L 5.0586 1.6611 L 5.0586 9.9531 L 3.0078 9.9531 L 3.0078 1.6611 L 0 1.6611 L 0 0 L 8.1074 0 Z" stroke-width="0.5" stroke="#ffffff" fill="#e0e0e0"/>
            </g>
            <g transform="translate(34.0636 29)">
                <path d="M 5.0244 0 L 5.3525 0 L 5.3525 1.627 L 5.1611 1.627 Q 3.8213 1.6475 3.0044 2.3242 Q 2.1875 3.001 2.0234 4.2041 Q 2.8164 3.3975 4.0264 3.3975 Q 5.3252 3.3975 6.0908 4.3271 Q 6.8564 5.2568 6.8564 6.7744 Q 6.8564 7.7451 6.436 8.5313 Q 6.0156 9.3174 5.2466 9.7549 Q 4.4775 10.1924 3.5068 10.1924 Q 1.9346 10.1924 0.9673 9.0986 Q 0 8.0049 0 6.1797 L 0 5.4688 Q 0 3.8486 0.6118 2.6079 Q 1.2236 1.3672 2.3687 0.687 Q 3.5137 0.0068 5.0244 0 Z M 3.4248 4.9834 Q 2.9463 4.9834 2.5566 5.2329 Q 2.167 5.4824 1.9824 5.8926 L 1.9824 6.4941 Q 1.9824 7.4854 2.3721 8.0425 Q 2.7617 8.5996 3.4658 8.5996 Q 4.1016 8.5996 4.4946 8.0972 Q 4.8877 7.5947 4.8877 6.7949 Q 4.8877 5.9814 4.4912 5.4824 Q 4.0947 4.9834 3.4248 4.9834 Z" stroke-width="0.5" stroke="#ffffff" fill="#e0e0e0"/>
            </g>
            <g transform="translate(41.7882 29.1025)">
                <path d="M 6.1455 0 L 6.1455 6.207 L 7.2734 6.207 L 7.2734 7.7998 L 6.1455 7.7998 L 6.1455 9.9531 L 4.1699 9.9531 L 4.1699 7.7998 L 0.0889 7.7998 L 0 6.5557 L 4.1494 0 L 6.1455 0 Z M 4.04 2.9189 L 1.9688 6.207 L 4.1699 6.207 L 4.1699 2.6934 L 4.04 2.9189 Z" stroke-width="0.5" stroke="#ffffff" fill="#e0e0e0"/>
            </g>
        </g>
    </g>
</svg>