<svg xmlns="http://www.w3.org/2000/svg" xmlns:xlink="http://www.w3.org/1999/xlink" width="60" height="60" stroke="#000" stroke-linecap="round" stroke-linejoin="round" fill="#fff" fill-rule="evenodd">
    <style>
        <![CDATA[.B{stroke:none}.C{stroke-width:2}.D{stroke-linecap:butt}]]>
    </style>
    <defs>
        <linearGradient id="A" x1="100%" y1="0%" x2="0%" y2="100%">
            <stop offset="0%"/>
            <stop offset="100%" stop-color="gray"/>
        </linearGradient>
        <linearGradient id="B" x1="0%" y1="0%" x2="100%" y2="100%">
            <stop offset="0%" stop-color="gray"/>
            <stop offset="100%"/>
        </linearGradient>
        <path id="C" d="M21.9102 23.1163v.2855l.069.1427.161.0951.092-.0713v-.2617z"/>
    </defs>
    <g fill="url(#A)" class="B">
        <path d="M25.2974 17.8947c0-.1296-.0107-.2339-.1393-.2339s-.1393.1043-.1393.2339l-.0929 3.2749h.4644z"/>
        <path d="M22.0467 16.0234c0-.1296-.0107-.2339-.1393-.2339s-.1393.1043-.1393.2339l-.0929 3.2749h.4644z"/>
    </g>
    <path d="M21.2662 18.6441q-.161-.0952-.322 0l-2.898 1.7127q-.161.0952 0 .1903l4.508 2.6643q.161.0952.322 0l2.898-1.7127q.161-.0952 0-.1903l-4.508-2.6643" fill="#eceff1" class="B"/>
    <path d="M22.7152 23.259q.0805 0 .161-.0476l2.898-1.7128q.0805-.0475.0805-.0951v.9515q0 .0476-.0805.0952l-2.898 1.7127q-.0805.0476-.161.0476z" fill="#78909c" class="B"/>
    <path d="M22.7152 23.259q-.0833.0017-.1667-.0476l-4.508-2.6643q-.0805-.0475-.0805-.0951v.9515q0 .0476.0805.0952l4.508 2.6643q.0834.0493.1667.0475z" fill="#b0bec5" class="B"/>
    <path d="M18.2992 20.9278v.7136l.391.2379v-.7136z" fill="#464646" class="B"/>
    <ellipse cx=".0761" cy=".0513" rx=".0761" ry=".0513" transform="matrix(.8660254 .5 -.5 .8660254 18.44794547 21.1714229)" class="B"/>
    <g fill="#464646" class="B">
        <use xlink:href="#C"/>
        <use xlink:href="#C" x="-0.483" y="-0.2855"/>
        <use xlink:href="#C" x="-0.966" y="-0.5709"/>
        <use xlink:href="#C" x="-1.449" y="-0.8564"/>
        <use xlink:href="#C" x="-1.932" y="-1.1419"/>
    </g>
    <path d="M22.5075 20.0181l.8998-.0808-.1247.5295-.2584-.1526-.7751.4488-.2494-.1436.7662-.4577zM20.84 20.58l.8998.0808-.1247-.5295-.2584.1525-.7751-.4487-.2494.1436.7662.4577zm.4933 1.0467l-.8998.0808.1247-.5295.2584.1525.775-.4487.2495.1436-.7662.4577zm1.7234-.596l-.8998-.0808.1247.5295.2584-.1526.775.4488.2495-.1436-.7662-.4577z" fill="#788f9b" class="B"/>
    <path d="M0 15.2144L30 0l30 15.3119-30 15.2144z" fill="#d9e0e3" class="B"/>
    <path d="M30 60L0 45.118V15.354l30 14.882z" fill="#7696ad" class="B"/>
    <path d="M60 15.4015v29.6689L30 59.9999v-29.764z" fill="#5f839e" class="B"/>
    <path d="M23.9079 24.3495L0 16.233V0l23.9079 8.1165z" fill="url(#B)" transform="matrix(.9961947 .08715574 -.08715574 .9961947 3.84659194 19.95187776)" class="B"/>
    <g fill="none">
        <path d="M3.1579 18.9474v16.8421m23.1579-5.2632v16.8421M3.1579 35.7895l6.3158 3.1579M20 44.2105l6.3158 3.1579" class="C"/>
        <path d="M1e-13 1e-13l6.4775 2.1592" stroke-width="8" stroke="url(#B)" transform="matrix(.98480775 .17364818 -.17364818 .98480775 11.73467522 42.29038983)" class="D"/>
        <path d="M11.5789 46.3158l6.3158 3.1579m-8.421-10.5263v3.1579M20 44.2105v3.1579" class="C"/>
    </g>
    <path d="M9.4737 42.1053l2.1053 1.0526" class="C"/>
    <g fill="none" class="C">
        <path d="M17.8947 46.3158L20 47.3684m-8.4211-4.2105v3.1579m6.3158 0v3.1579"/>
        <path d="M5.7895 20.5263v7.3684M8.421 21.579v7.3684m2.6316-5.7895v7.3684m2.6316-6.3158v7.3684m2.6316-5.7894v7.3684m2.6316-6.3158v7.3684m2.6316-5.7894v7.3684m2.6315-6.3158v7.3684" stroke="#ff8200" class="D"/>
        <path d="M3.1579 18.9474l23.1579 11.5789"/>
    </g>
</svg>