<svg xmlns="http://www.w3.org/2000/svg" width="42" height="37" stroke="#000" stroke-linecap="round" stroke-linejoin="round" fill="#fff" fill-rule="evenodd"><defs><linearGradient id="A" x1="0%" y1="0%" x2="100%" y2="100%"><stop offset="0%" stop-color="#acacac"/><stop offset="100%" stop-color="#404040"/></linearGradient><linearGradient id="B" x1="0%" y1="0%" x2="100%" y2="100%"><stop offset="0%" stop-color="#eeffe5"/><stop offset="100%" stop-color="#6bd153"/></linearGradient></defs><g transform="translate(1 1)"><rect width="40" height="35" stroke-width="2" fill="none" rx="3" stroke="#4f4f4f"/><g transform="translate(12.1374 4.9251)" stroke="url(#A)" fill="url(#B)" stroke-width="3"><path d="M1e-13 1e-13l10.3707 17.7482" stroke-linecap="butt" transform="translate(4.4014 7.3267)"/><g stroke-linejoin="miter"><path d="M.227.1496l2.0363 20.7065 4.53-9.3333z"/><path d="M2.1107 21.6274L.0045.2097.4311.0317l6.607 11.4436-4.9274 10.1521zM.5581 1.1946l1.8577 18.8903 4.1326-8.5147L.5581 1.1946z"/><path d="M.2042.1628l16.9143 12.1167-10.348-.7435z"/><path d="M17.8625 12.533l-11.2556-.8089L0 .2805.3675 0l17.495 12.533zM6.9339 11.3474l9.4402.6784L.9436.9719l5.9903 10.3755z"/></g></g></g></svg>