<svg xmlns="http://www.w3.org/2000/svg" xmlns:xlink="http://www.w3.org/1999/xlink" xmlns:v="http://vecta.io" width="53" height="37" viewBox="0 0 53 37">
    <style>
        <![CDATA[svg{stroke:#000;stroke-linecap:round;stroke-linejoin:round;fill:#fff;fill-rule:evenodd;font-family:Roboto;font-size:14px;text-anchor:middle}svg text{paint-order:stroke;white-space:pre}svg .Text\.cls{stroke:none}]]>
    </style>
    <defs>
        <radialGradient id="R845050505000096d510000387f.grad" cx="50%" cy="50%" r="84%" fx="50%" fy="50%">
            <stop offset="0%" stop-color="#0096d5"/>
            <stop offset="100%" stop-color="#00387f"/>
        </radialGradient>
    </defs>
    <g>
        <g >
            <g transform="translate(3.0073 22.5269)">
                <path fill="#0096d5" d="M 5.5998 5.7922 Q 6.4981 5.3824 6.9376 4.7032 Q 7.3776 4.0232 7.3776 3.0032 Q 7.3776 1.5732 6.4176 0.7832 Q 5.4576 0.0032 3.6976 0.0032 L 0 0 L 0 9.9531 L 2.0508 9.9531 L 2.0508 6.3096 L 3.6846 6.3096 L 5.5508 9.9531 L 7.752 9.9531 L 7.752 9.8574 Z" stroke="none"/>
            </g>
            <g transform="translate(0.004 18.8601)">
                <path fill="#0096d5" d="M 39.4075 18 L 39.4075 0 L 0 0 L 0 18 L 39.4075 18 Z M 8.6031 9.459 Q 9.5014 9.0492 9.9409 8.37 Q 10.3809 7.69 10.3809 6.67 Q 10.3809 5.24 9.4209 4.45 Q 8.4609 3.67 6.7009 3.67 L 3.0033 3.6668 L 3.0033 13.6199 L 5.0541 13.6199 L 5.0541 9.9764 L 6.6879 9.9764 L 8.5541 13.6199 L 10.7553 13.6199 L 10.7553 13.5242 Z" stroke="none"/>
            </g>
            <g transform="translate(0.0999 0)">
                <path d="M 0 18.2361 L 15.9836 0 L 52.6352 0 L 39.4075 18.2361 L 0 18.2361 Z M 39.6831 36.8602 L 52.6352 16.6841 L 52.6352 0 L 39.6831 18.2361 L 39.6831 36.8602 Z" stroke="none" fill="url(#R845050505000096d510000387f.grad)"/>
            </g>
            <g transform="translate(0 16.9147)">
                <path d="M 0 0 L 39.4075 0 L 39.4075 18.9917 L 0 18.9917 Z" stroke="none" fill="none"/>
            </g>
            <g transform="translate(3.0074 22.5269)">
                <path d="M 5.5508 9.9531 L 3.6846 6.3096 L 2.0508 6.3096 L 2.0508 9.9531 L 0 9.9531 L 0 0 L 3.6982 0 Q 5.4619 0 6.4189 0.7861 Q 7.376 1.5723 7.376 3.0078 Q 7.376 4.0264 6.9351 4.7065 Q 6.4941 5.3867 5.5986 5.79 L 7.752 9.8574 L 7.752 9.9531 L 5.5508 9.9531 Z M 2.0508 1.6611 L 2.0508 4.6484 L 3.7051 4.6484 Q 4.4775 4.6484 4.9014 4.2554 Q 5.3252 3.8623 5.3252 3.1719 Q 5.3252 2.4678 4.9253 2.0645 Q 4.5254 1.6611 3.6982 1.6611 L 2.0508 1.6611 Z" stroke-width="0.5" stroke="#ffffff" fill="#e0e0e0"/>
            </g>
            <g transform="translate(11.525 22.3902)">
                <path d="M 5.5781 7.4785 Q 5.5781 6.8975 5.168 6.5864 Q 4.7578 6.2754 3.6914 5.9302 Q 2.625 5.585 2.0029 5.25 Q 0.3076 4.334 0.3076 2.7822 Q 0.3076 1.9756 0.7622 1.3433 Q 1.2168 0.7109 2.0679 0.3555 Q 2.9189 0 3.9785 0 Q 5.0449 0 5.8789 0.3862 Q 6.7129 0.7725 7.1743 1.4766 Q 7.6357 2.1807 7.6357 3.0762 L 5.585 3.0762 Q 5.585 2.3926 5.1543 2.0132 Q 4.7236 1.6338 3.9443 1.6338 Q 3.1924 1.6338 2.7754 1.9517 Q 2.3584 2.2695 2.3584 2.7891 Q 2.3584 3.2744 2.8472 3.6025 Q 3.3359 3.9307 4.2861 4.2178 Q 6.0361 4.7441 6.8359 5.5234 Q 7.6357 6.3027 7.6357 7.4648 Q 7.6357 8.7568 6.6582 9.4917 Q 5.6807 10.2266 4.0264 10.2266 Q 2.8779 10.2266 1.9346 9.8062 Q 0.9912 9.3857 0.4956 8.6543 Q 0 7.9229 0 6.959 L 2.0576 6.959 Q 2.0576 8.6064 4.0264 8.6064 Q 4.7578 8.6064 5.168 8.3091 Q 5.5781 8.0117 5.5781 7.4785 Z" stroke-width="0.5" stroke="#ffffff" fill="#e0e0e0"/>
            </g>
            <g transform="translate(19.9332 22.5269)">
                <path d="M 8.1074 0 L 8.1074 1.6611 L 5.0586 1.6611 L 5.0586 9.9531 L 3.0078 9.9531 L 3.0078 1.6611 L 0 1.6611 L 0 0 L 8.1074 0 Z" stroke-width="0.5" stroke="#ffffff" fill="#e0e0e0"/>
            </g>
            <g transform="translate(29.2096 22.5269)">
                <path d="M 3.8486 6.4463 L 2.0508 6.4463 L 2.0508 9.9531 L 0 9.9531 L 0 0 L 3.8828 0 Q 5.0039 0 5.855 0.4102 Q 6.7061 0.8203 7.1641 1.5757 Q 7.6221 2.3311 7.6221 3.2949 Q 7.6221 4.7578 6.6206 5.6021 Q 5.6191 6.4463 3.8486 6.4463 Z M 2.0508 1.6611 L 2.0508 4.7852 L 3.8828 4.7852 Q 4.6963 4.7852 5.1235 4.4023 Q 5.5508 4.0195 5.5508 3.3086 Q 5.5508 2.5771 5.1201 2.126 Q 4.6895 1.6748 3.9307 1.6611 L 2.0508 1.6611 Z" stroke-width="0.5" stroke="#ffffff" fill="#e0e0e0"/>
            </g>
            <g transform="translate(6.0806 0.8601)">
                <path d="M 16.791 13.3334 L 15.8222 14.2223 L 4.5206 14.2223 L 3.2291 16 L 0 14.2223 L 6.458 11.5555 L 5.1665 13.3334 L 16.791 13.3334 Z M 25.8322 5.3333 L 24.8635 6.6667 L 13.5619 6.6667 L 12.2703 7.9999 L 9.0413 6.2222 L 15.4993 4 L 14.2077 5.3333 L 25.8322 5.3333 Z M 18.7284 10.6667 L 19.697 9.7778 L 31.3215 9.7778 L 32.2903 7.9999 L 35.5193 9.7778 L 29.3841 12.4444 L 30.3529 10.6667 L 18.7284 10.6667 Z M 24.8635 2.6666 L 25.8322 1.7777 L 37.1338 1.7777 L 38.4254 0 L 41.6544 2.2222 L 35.1964 4.4445 L 36.488 2.6666 L 24.8635 2.6666 Z" stroke="#ffffff" stroke-linejoin="miter" stroke-linecap="square" stroke-width="0.3935" fill="#e0e0e0"/>
            </g>
        </g>
    </g>
</svg>