<svg xmlns="http://www.w3.org/2000/svg" xmlns:xlink="http://www.w3.org/1999/xlink" xmlns:v="http://vecta.io" width="41" height="30" viewBox="0 0 41 30">
    <style>
        <![CDATA[svg{stroke:#000;stroke-linecap:round;stroke-linejoin:round;fill:#fff;fill-rule:evenodd;font-family:Roboto;font-size:14px;text-anchor:middle}svg text{paint-order:stroke;white-space:pre}svg .Text\.cls{stroke:none}]]>
    </style>
    <defs>
        <radialGradient id="R845050505000096d510000387f.grad" cx="50%" cy="50%" r="84%" fx="50%" fy="50%">
            <stop offset="0%" stop-color="#0096d5"/>
            <stop offset="100%" stop-color="#00387f"/>
        </radialGradient>
    </defs>
    <g>
        <g >
            <g transform="translate(0.0031 15.0584)">
                <path d="M 30.1656 14.3716 L 30.1656 0 L 0 0 L 0 14.3716 L 30.1656 14.3716 Z M 6.5855 7.5523 Q 7.273 7.2251 7.6095 6.6828 Q 7.9464 6.1399 7.9464 5.3255 Q 7.9464 4.1837 7.2115 3.553 Q 6.4766 2.9302 5.1294 2.9302 L 2.299 2.9277 L 2.299 10.8745 L 3.8688 10.8745 L 3.8688 7.9654 L 5.1194 7.9654 L 6.548 10.8745 L 8.2329 10.8745 L 8.2329 10.798 Z" stroke="none" fill="#0096d5"/>
            </g>
            <g transform="translate(0.0765 0)">
                <path d="M 0 14.5601 L 12.2351 0 L 40.2911 0 L 30.1656 14.5601 L 0 14.5601 Z M 30.3766 29.4301 L 40.2911 13.321 L 40.2911 0 L 30.3766 14.5601 L 30.3766 29.4301 Z" stroke="none" fill="url(#R845050505000096d510000387f.grad)"/>
            </g>
            <g transform="translate(0 13.5051)">
                <path d="M 0 0 L 30.1656 0 L 30.1656 15.1634 L 0 15.1634 Z" stroke="none" fill="none"/>
            </g>
            <g transform="translate(4.6546 0.6867)">
                <path d="M 12.8532 10.6457 L 12.1115 11.3554 L 3.4604 11.3554 L 2.4718 12.7748 L 0 11.3554 L 4.9434 9.2262 L 3.9548 10.6457 L 12.8532 10.6457 Z M 19.774 4.2582 L 19.0325 5.3229 L 10.3813 5.3229 L 9.3927 6.3873 L 6.9209 4.968 L 11.8644 3.1937 L 10.8757 4.2582 L 19.774 4.2582 Z M 14.3362 8.5166 L 15.0776 7.8068 L 23.9759 7.8068 L 24.7175 6.3873 L 27.1893 7.8068 L 22.4929 9.9359 L 23.2344 8.5166 L 14.3362 8.5166 Z M 19.0325 2.1291 L 19.774 1.4194 L 28.4251 1.4194 L 29.4138 0 L 31.8856 1.7743 L 26.9421 3.5486 L 27.9308 2.1291 L 19.0325 2.1291 Z" stroke="#ffffff" stroke-linejoin="miter" stroke-linecap="square" fill="#e0e0e0" stroke-width="0.39350000000000007"/>
            </g>
            <g transform="translate(0.5626 15.0584)">
                <path d="M 0 0 L 29.0882 0 L 29.0882 13.5732 L 0 13.5732 Z" stroke="#ffffff" stroke-opacity="0" fill="#0096d5" stroke-width="0.5"/>
            </g>
            <g transform="translate(2.7409 18.1016)">
                <path d="M 3.9784 4.6361 L 5.324 4.6361 Q 5.2477 5.7356 4.5458 6.3671 Q 3.8439 6.9987 2.6956 6.9987 Q 1.4398 6.9987 0.7199 6.1168 Q 0 5.2349 0 3.6958 L 0 3.2794 Q 0 2.2971 0.3319 1.5485 Q 0.6638 0.8 1.2806 0.4 Q 1.8972 0 2.7135 0 Q 3.8439 0 4.5345 0.6316 Q 5.2253 1.2631 5.3329 2.4046 L 3.9874 2.4046 Q 3.938 1.745 3.6353 1.4479 Q 3.3325 1.1508 2.7135 1.1508 Q 2.0408 1.1508 1.7066 1.6538 Q 1.3725 2.1567 1.3635 3.214 L 1.3635 3.7286 Q 1.3635 4.8326 1.6842 5.3426 Q 2.0049 5.8525 2.6956 5.8525 Q 3.319 5.8525 3.6263 5.5554 Q 3.9336 5.2583 3.9784 4.6361 Z" stroke="#ffffff" fill="#e0e0e0" stroke-width="0.5"/>
            </g>
            <g transform="translate(8.9484 18.1952)">
                <path d="M 1.3456 0 L 1.3456 5.6841 L 4.2026 5.6841 L 4.2026 6.8116 L 0 6.8116 L 0 0 L 1.3456 0 Z" stroke="#ffffff" fill="#e0e0e0" stroke-width="0.5"/>
            </g>
            <g transform="translate(14.0078 18.1952)">
                <path d="M 1.3456 0 L 1.3456 6.8116 L 0 6.8116 L 0 0 L 1.3456 0 Z" stroke="#ffffff" fill="#e0e0e0" stroke-width="0.5"/>
            </g>
            <g transform="translate(16.403 18.1016)">
                <path d="M 3.9784 4.6361 L 5.324 4.6361 Q 5.2477 5.7356 4.5458 6.3671 Q 3.8439 6.9987 2.6956 6.9987 Q 1.4398 6.9987 0.7199 6.1168 Q 0 5.2349 0 3.6958 L 0 3.2794 Q 0 2.2971 0.3319 1.5485 Q 0.6638 0.8 1.2806 0.4 Q 1.8972 0 2.7135 0 Q 3.8439 0 4.5345 0.6316 Q 5.2253 1.2631 5.3329 2.4046 L 3.9874 2.4046 Q 3.938 1.745 3.6353 1.4479 Q 3.3325 1.1508 2.7135 1.1508 Q 2.0408 1.1508 1.7066 1.6538 Q 1.3725 2.1567 1.3635 3.214 L 1.3635 3.7286 Q 1.3635 4.8326 1.6842 5.3426 Q 2.0049 5.8525 2.6956 5.8525 Q 3.319 5.8525 3.6263 5.5554 Q 3.9336 5.2583 3.9784 4.6361 Z" stroke="#ffffff" fill="#e0e0e0" stroke-width="0.5"/>
            </g>
            <g transform="translate(22.6105 18.1952)">
                <path d="M 3.7228 6.8116 L 2.0453 4.0795 L 1.3456 4.8654 L 1.3456 6.8116 L 0 6.8116 L 0 0 L 1.3456 0 L 1.3456 3.0877 L 1.9377 2.2409 L 3.6017 0 L 5.2567 0 L 2.9378 3.0268 L 5.324 6.8116 L 3.7228 6.8116 Z" stroke="#ffffff" fill="#e0e0e0" stroke-width="0.5"/>
            </g>
        </g>
    </g>
</svg>