<svg xmlns="http://www.w3.org/2000/svg" xmlns:xlink="http://www.w3.org/1999/xlink" xmlns:v="http://vecta.io" width="41" height="33" viewBox="0 0 41 33">
    <style>
        <![CDATA[svg{stroke:#000;stroke-linecap:round;stroke-linejoin:round;fill:#fff;fill-rule:evenodd;font-family:Roboto;font-size:14px;text-anchor:middle;}svg text{paint-order:stroke;white-space:pre;}svg .Text\.cls{stroke:none;}]]>
    </style>
    <defs>
        <linearGradient id="L001001000ffffff100100c7c7c7100.grad" x1="0%" y1="0%" x2="100%" y2="100%">
            <stop offset="0%" stop-color="#ffffff" stop-opacity="1"/>
            <stop offset="100%" stop-color="#c7c7c7" stop-opacity="1"/>
        </linearGradient>
    </defs>
    <g fill="url(#L001001000ffffff100100c7c7c7100.grad)" transform="translate(1 1)" stroke-width="2">
        <g>
            <g>
                <path d="M 13.3516 3.4366 C 6.6536 1.6996 3.0111 6.2792 3.5984 10.3846 L 3.5984 10.5428 C -1.6889 11.8058 -0.2789 20.1751 2.3063 20.1751 L 2.5414 20.1751 C 1.8363 24.1223 8.0635 28.0703 11.4715 26.0176 L 11.7065 25.7018 C 12.8816 29.3333 17.3462 29.8072 21.5764 29.9656 C 25.3367 30.1238 27.4515 29.8072 29.0967 27.5963 L 29.3315 27.5963 C 35.324 28.2281 38.0268 22.7018 36.7342 18.7538 L 37.0868 18.5956 C 39.0844 17.9639 39.3193 11.6475 35.7942 10.7003 L 35.9121 10.3845 C 37.4395 6.2783 33.7971 2.489 28.8617 3.1208 L 28.5096 2.9625 C 24.9842 -1.4587 14.7616 -0.6692 13.5865 3.5948 Z" fill="url(#L001001000ffffff100100c7c7c7100.grad)" fill-opacity="1" stroke="none" stroke-width="2"/>
            </g>
            <g>
                <path d="M 13.3516 3.4366 C 6.6536 1.6996 3.0111 6.2792 3.5984 10.3846 L 3.5984 10.5428 C -1.6889 11.8058 -0.2789 20.1751 2.3063 20.1751 L 2.5414 20.1751 C 1.8363 24.1223 8.0635 28.0703 11.4715 26.0176 L 11.7065 25.7018 C 12.8816 29.3333 17.3462 29.8072 21.5764 29.9656 C 25.3367 30.1238 27.4515 29.8072 29.0967 27.5963 L 29.3315 27.5963 C 35.324 28.2281 38.0268 22.7018 36.7342 18.7538 L 37.0868 18.5956 C 39.0844 17.9639 39.3193 11.6475 35.7942 10.7003 L 35.9121 10.3845 C 37.4395 6.2783 33.7971 2.489 28.8617 3.1208 L 28.5096 2.9625 C 24.9842 -1.4587 14.7616 -0.6692 13.5865 3.5948 Z" fill="url(#L001001000ffffff100100c7c7c7100.grad)" fill-opacity="1" stroke="#0f73a0" stroke-width="2"/>
            </g>
        </g>
    </g>
</svg>