<svg xmlns="http://www.w3.org/2000/svg" xmlns:xlink="http://www.w3.org/1999/xlink" xmlns:v="http://vecta.io" width="43" height="61" viewBox="0 0 43 61">
    <style>
        <![CDATA[svg{stroke:#000;stroke-linecap:round;stroke-linejoin:round;fill:#fff;fill-rule:evenodd;font-family:Roboto;font-size:14px;text-anchor:middle;}svg text{paint-order:stroke;white-space:pre;}svg .Text\.cls{stroke:none;}]]>
    </style>
    <defs>
        <style>@import url("https://vecta.io/fonts/roboto.css");</style>
    </defs>
    <g transform="translate(0.9629 0.5)">
        <g>
            <g transform="translate(2.4464 3.8681)">
                <path d="M 0 6.4767 C 0 2.8886 1.3432 0 3.0117 0 C 4.6802 0 6.0234 2.8886 6.0234 6.4767 C 6.0234 10.0648 4.6802 12.9534 3.0117 12.9534 C 1.3432 12.9534 0 10.0648 0 6.4767 Z" stroke="#c8c5a2" fill="#c8c5a2" stroke-width="2"/>
            </g>
            <g transform="translate(6.0604 0.9895)">
                <path d="M 0 2.1589 C 0 0.9629 4.8355 0 10.842 0 C 16.8485 0 21.684 0.9629 21.684 2.1589 C 21.684 3.3549 16.8485 4.3178 10.842 4.3178 C 4.8355 4.3178 0 3.3549 0 2.1589 Z" stroke="#c8c5a2" fill="#c8c5a2" stroke-width="2"/>
            </g>
            <g transform="translate(6.0604 42.7287)">
                <path d="M 0 2.1589 C 0 0.9629 0.5372 0 1.2046 0 C 1.8719 0 2.4092 0.9629 2.4092 2.1589 C 2.4092 3.3549 1.8719 4.3178 1.2046 4.3178 C 0.5372 4.3178 0 3.3549 0 2.1589 Z" stroke="#c8c5a2" fill="#c8c5a2" stroke-width="2"/>
            </g>
            <g transform="translate(18.1071 54.2429)">
                <path d="M 0 1.4393 C 0 0.6419 0.5373 0 1.2046 0 C 1.8719 0 2.4092 0.6419 2.4092 1.4393 C 2.4092 2.2367 1.8719 2.8786 1.2046 2.8786 C 0.5373 2.8786 0 2.2367 0 1.4393 Z" stroke="#c8c5a2" fill="#c8c5a2" stroke-width="2"/>
            </g>
            <g transform="translate(0.0371 15.3823)">
                <path d="M 0 2.8785 C 0 1.2838 1.0746 0 2.4094 0 C 3.7442 0 4.8188 1.2838 4.8188 2.8785 C 4.8188 4.4732 3.7442 5.757 2.4094 5.757 C 1.0746 5.757 0 4.4732 0 2.8785 Z" stroke="#c8c5a2" fill="#c8c5a2" stroke-width="2"/>
            </g>
            <g transform="translate(4.8558 34.0929)">
                <path d="M 0 5.7571 C 0 2.5677 1.3432 0 3.0117 0 C 4.6802 0 6.0234 2.5677 6.0234 5.7571 C 6.0234 8.9465 4.6802 11.5142 3.0117 11.5142 C 1.3432 11.5142 0 8.9465 0 5.7571 Z" stroke="#c8c5a2" fill="#c8c5a2" stroke-width="2"/>
            </g>
            <g transform="translate(27.7445 16.8216)">
                <path d="M 0 7.1964 C 0 3.2096 0.5372 0 1.2046 0 C 1.8719 0 2.4092 3.2096 2.4092 7.1964 C 2.4092 11.1832 1.8719 14.3928 1.2046 14.3928 C 0.5372 14.3928 0 11.1832 0 7.1964 Z" stroke="#c8c5a2" fill="#c8c5a2" stroke-width="2"/>
            </g>
            <g transform="translate(26.5399 19.7001)">
                <path d="M 0 7.1964 C 0 3.2096 0.5373 0 1.2046 0 C 1.8719 0 2.4092 3.2096 2.4092 7.1964 C 2.4092 11.1832 1.8719 14.3928 1.2046 14.3928 C 0.5373 14.3928 0 11.1832 0 7.1964 Z" stroke="#c8c5a2" fill="#c8c5a2" stroke-width="2"/>
            </g>
            <g transform="translate(26.5399 11.0645)">
                <path d="M 0 3.5982 C 0 1.6048 0.8059 0 1.807 0 C 2.8081 0 3.614 1.6048 3.614 3.5982 C 3.614 5.5916 2.8081 7.1964 1.807 7.1964 C 0.8059 7.1964 0 5.5916 0 3.5982 Z" stroke="#c8c5a2" fill="#c8c5a2" stroke-width="2"/>
            </g>
            <g transform="translate(20.5165 25.4573)">
                <path d="M 0 6.4767 C 0 2.8886 1.6118 0 3.614 0 C 5.6161 0 7.228 2.8886 7.228 6.4767 C 7.228 10.0648 5.6161 12.9534 3.614 12.9534 C 1.6118 12.9534 0 10.0648 0 6.4767 Z" stroke="#c8c5a2" fill="#c8c5a2" stroke-width="2"/>
            </g>
            <g transform="translate(21.7212 15.3823)">
                <path d="M 0 12.9535 C 0 5.7773 0.8059 0 1.807 0 C 2.8081 0 3.614 5.7773 3.614 12.9535 C 3.614 20.1297 2.8081 25.907 1.807 25.907 C 0.8059 25.907 0 20.1297 0 12.9535 Z" stroke="#c8c5a2" fill="#c8c5a2" stroke-width="2"/>
            </g>
            <g transform="translate(20.5165 16.8216)">
                <path d="M 0 14.3928 C 0 6.4192 0.5372 0 1.2046 0 C 1.8719 0 2.4092 6.4192 2.4092 14.3928 C 2.4092 22.3664 1.8719 28.7856 1.2046 28.7856 C 0.5372 28.7856 0 22.3664 0 14.3928 Z" stroke="#c8c5a2" fill="#c8c5a2" stroke-width="2"/>
            </g>
            <g transform="translate(21.7212 13.9431)">
                <path d="M 0 14.3928 C 0 6.4192 0.5372 0 1.2046 0 C 1.8719 0 2.4092 6.4192 2.4092 14.3928 C 2.4092 22.3664 1.8719 28.7856 1.2046 28.7856 C 0.5372 28.7856 0 22.3664 0 14.3928 Z" stroke="#c8c5a2" fill="#c8c5a2" stroke-width="2"/>
            </g>
            <g transform="translate(19.3119 19.7001)">
                <path d="M 0 14.3928 C 0 6.4192 0.5373 0 1.2046 0 C 1.8719 0 2.4092 6.4192 2.4092 14.3928 C 2.4092 22.3664 1.8719 28.7856 1.2046 28.7856 C 0.5373 28.7856 0 22.3664 0 14.3928 Z" stroke="#c8c5a2" fill="#c8c5a2" stroke-width="2"/>
            </g>
            <g transform="translate(0.0371 13.9431)">
                <path d="M 0 10.0749 C 0 4.4934 1.6118 0 3.614 0 C 5.6161 0 7.228 4.4934 7.228 10.0749 C 7.228 15.6564 5.6161 20.1498 3.614 20.1498 C 1.6118 20.1498 0 15.6564 0 10.0749 Z" stroke="#c8c5a2" fill="#c8c5a2" stroke-width="2"/>
            </g>
            <g transform="translate(13.2885 38.4108)">
                <path d="M 0 10.0749 C 0 4.4934 1.6118 0 3.614 0 C 5.6161 0 7.228 4.4934 7.228 10.0749 C 7.228 15.6564 5.6161 20.1498 3.614 20.1498 C 1.6118 20.1498 0 15.6564 0 10.0749 Z" stroke="none" stroke-opacity="0" fill="#c8c5a2" stroke-width="2"/>
            </g>
            <g transform="translate(12.0838 36.9715)">
                <path d="M 0 0 L 4.8187 0 L 4.8187 23.0285 L 0 23.0285 Z" stroke="none" stroke-opacity="0" fill="#c8c5a2" stroke-width="2"/>
            </g>
            <g transform="translate(15.6978 32.6537)">
                <path d="M 0 0 L 4.8187 0 L 4.8187 23.0285 L 0 23.0285 Z" stroke="none" stroke-opacity="0" fill="#c8c5a2" stroke-width="2"/>
            </g>
            <g transform="translate(2.3195 27.9999)">
                <path d="M 0 6 C 0 2.676 1.5518 0 3.4792 0 C 5.4068 0 6.9586 2.676 6.9586 6 C 6.9586 9.324 5.4068 12 3.4792 12 C 1.5518 12 0 9.324 0 6 Z" stroke="none" fill="#c8c5a2" stroke-width="1"/>
            </g>
            <g transform="translate(2.3195 21.9999)">
                <path d="M 0 8.0001 C 0 3.568 1.0345 0 2.3195 0 C 3.6046 0 4.6391 3.568 4.6391 8.0001 C 4.6391 12.4321 3.6046 16.0002 2.3195 16.0002 C 1.0345 16.0002 0 12.4321 0 8.0001 Z" stroke="none" fill="#c8c5a2" stroke-width="1"/>
            </g>
            <g transform="translate(6.9586 27.9999)">
                <path d="M 0 0 L 9.2781 0 L 9.2781 32.0001 L 0 32.0001 Z" stroke="none" fill="#c8c5a2" stroke-width="1"/>
            </g>
            <g transform="translate(2.3195 27.9999)">
                <path d="M 0 0 L 25.5148 0 L 25.5148 6 L 0 6 Z" stroke="none" fill="#c8c5a2" stroke-width="1"/>
            </g>
            <g transform="translate(2.3195 27.9999)">
                <path d="M 0 0 L 25.5148 0 L 25.5148 6 L 0 6 Z" stroke="none" fill="#c8c5a2" stroke-width="1"/>
            </g>
            <g transform="translate(4.8558 3.9999)">
                <path d="M 0 0 L 22.9786 0 L 22.9786 24 L 0 24 Z" stroke="none" fill="#c8c5a2" stroke-width="1"/>
            </g>
            <g transform="translate(4.6389 0)">
                <path d="M 0.00001 3.9999 L 4.639 0 M 4.6392 0 L 20.8757 0" stroke="#262626" fill="none" stroke-width="1"/>
            </g>
            <g transform="translate(2.3195 0)">
                <path d="M 2.3194 3.9999 L 18.556 3.9999 M 18.5563 3.9999 L 23.1953 0 M 2.3195 3.9999 L 0 6 M 0 6 L 0 14.0001" stroke="#262626" fill="none" stroke-width="1"/>
            </g>
            <g>
                <path d="M 20.8758 3.9999 L 23.1953 6 M 25.5148 0 L 27.8344 2.0001 M 27.8342 2.0001 L 27.8342 10.0002 M 0 15.9999 L 0 27.9999 M 0 16.0002 L 2.3195 14.0001 M 23.1952 6 L 23.1952 14.0001" stroke="#262626" fill="none" stroke-width="1"/>
            </g>
            <g transform="translate(23.1952 2.0001)">
                <path d="M 0.00001 3.9999 L 4.639 0 M 0 11.9998 L 4.639 7.9998" stroke="#262626" fill="none" stroke-width="1"/>
            </g>
            <g transform="translate(4.6389 8.0001)">
                <path d="M 0.00001 6 L 0 0 M 2.3197 6 L 2.3197 0 M 4.6392 6 L 4.6392 0 M 6.9587 6 L 6.9587 0 M 9.2782 6 L 9.2782 0 M 11.5976 6 L 11.5976 0 M 13.9172 6 L 13.9172 0 M 16.2369 6 L 16.2369 0" stroke="#ff8200" fill="none" stroke-width="1"/>
            </g>
            <g transform="translate(0 9.9999)">
                <path d="M 23.1952 4.0002 L 25.5148 6.0002 M 25.5148 6 L 25.5148 18 M 27.8342 0 L 30.1538 2.0001 M 30.1538 2.0001 L 30.1538 14.0001 M 25.5148 18 L 30.1538 14.0001 M 0 18 L 25.5148 18" stroke="#262626" fill="none" stroke-width="1"/>
            </g>
            <g transform="translate(0 27.9999)">
                <path d="M 6.9586 22.0002 L 16.2367 22.0002 M 0 0 L 6.9586 20.0001" stroke="#262626" fill="none" stroke-width="1"/>
            </g>
            <g transform="translate(6.9586 27.9999)">
                <path d="M 18.5562 0.00001 L 9.2781 20.5715 L 9.2781 32.0001 L 0 32.0001 L 0 20.5715 M 9.2779 32.0001 L 13.917 28.0002" stroke="#262626" fill="none" stroke-width="1"/>
            </g>
            <g transform="translate(6.9586 24)">
                <path d="M 13.9172 32.0001 L 13.9172 24 M 9.2779 26.0001 L 13.917 24 M 13.9172 24 L 23.1953 6 L 23.1953 0 M 0 24 L 9.2781 24" stroke="#262626" fill="none" stroke-width="1"/>
            </g>
            <g transform="translate(1.8557 14.0001)">
                <path d="M 14.3809 33.9999 L 19.0199 31.9998 M 0 20.0001 L 21.2552 20.0001 L 25.9787 18 M 2.7833 0 L 19.0199 0" stroke="#262626" fill="none" stroke-width="1"/>
            </g>
        </g>
    </g>
    <g transform="translate(18.9629 17.5)" class="ly8upbhq22n.lay" v:layer_name="Capa sin título">
        <rect x="0" y="0" width="24" height="10" fill="none" stroke="none"/>
        <g class="Text.cls">
            <rect x="0" y="0" width="24" height="10" fill="none" stroke="none"/>
            <text font-size="10px" fill="#000000" fill-opacity="1" font-weight="bold">
                <tspan x="12" y="8.3">NAT</tspan>
            </text>
        </g>
    </g>
</svg>