<svg xmlns="http://www.w3.org/2000/svg" width="42" height="42" stroke="#000" stroke-linecap="round" stroke-linejoin="round" fill="#fff" fill-rule="evenodd"><g stroke="none" fill-rule="nonzero"><path d="M1.5673 4.6016h35.2498v35.1406H1.5673z"/><path d="M18.0907 23.5909l3.915-1.4822-2.4361-2.4431z" fill="#f4aa41"/><path d="M37.8605.5282L41 3.6766 22.7405 21.988l-3.1394-3.1484z" fill="#a57939"/></g><path d="M36.1577 14.1731v25.5233c0 .4575-.3733.8317-.8295.8317H1.8294c-.4561 0-.8294-.3742-.8294-.8317V6.1013c0-.4594.3713-.8318.8294-.8318h25.7377m-5.0903 16.9439L40.2767 4.3629a.834.834 0 0 0 0-1.1763l-1.9376-1.943a.828.828 0 0 0-1.1728 0L19.3581 19.0942 17.18 24.4061l5.2885-2.1927-3.1104-3.1192" fill="none" stroke-miterlimit="10" stroke-width="2"/></svg>