<svg xmlns="http://www.w3.org/2000/svg" xmlns:xlink="http://www.w3.org/1999/xlink" xmlns:v="http://vecta.io" width="42" height="40" viewBox="0 0 42 40">
    <style>
        <![CDATA[svg{stroke:#000;stroke-linecap:round;stroke-linejoin:round;fill:#fff;fill-rule:evenodd;font-family:Roboto;font-size:14px;text-anchor:middle;}svg text{paint-order:stroke;white-space:pre;}svg .Text\.cls{stroke:none;}]]>
    </style>
    <g transform="translate(1 1)">
        <g>
            <g transform="translate(6.0731 5.2214)">
                <ellipse cx="8.2551" cy="8.2744" fill="#5CE1E6" rx="8.2551" ry="8.2744" stroke="none" stroke-opacity="0" stroke-width="0.5"/>
            </g>
            <g>
                <rect fill="none" fill-opacity="0" height="38" rx="5" stroke="#262626" stroke-width="2" width="40" x="0" y="0"/>
            </g>
            <g stroke="#262626" transform="translate(1.961 2.2893)">
                <g>
                    <g transform="translate(0 0)">
                        <path d="M 10.3303 0.1274 C 9.8582 0.1859 8.8835 0.4362 8.1757 0.686 C 2.2166 2.7164 -1.18 8.6444 0.3768 14.2782 C 2.2322 20.9859 10.0944 24.6781 16.9341 22.0452 C 17.5474 21.7953 18.2082 21.501 18.3964 21.3835 C 18.7426 21.1477 18.7895 21.192 20.1264 22.4278 L 21.51 23.7072 L 20.8026 24.3844 L 20.0947 25.0609 L 24.3874 29.0477 C 29.215 33.5632 29.4349 33.7107 31.3378 33.7107 C 34.0263 33.7107 36.0389 31.8277 36.0389 29.312 C 36.0389 27.5468 35.8818 27.3264 31.0547 22.8101 L 26.7933 18.7945 L 26.0698 19.4559 L 25.3622 20.1186 L 23.9946 18.8385 L 22.6421 17.5734 L 23.1609 16.6027 C 24.1986 14.6609 24.5917 12.9106 24.4503 10.7774 C 24.3246 9.0416 24.0258 7.9824 23.1767 6.3647 C 20.8181 1.8922 15.6763 -0.6084 10.3303 0.1274 Z M 15.3149 1.7009 C 19.0728 2.8045 21.856 5.4674 22.862 8.9385 C 23.1926 10.1158 23.2395 12.6456 22.9409 13.7929 C 22.6421 14.9701 21.4781 17.1323 20.7079 17.9854 C 17.3903 21.6045 12.1543 22.7075 7.7198 20.7216 C 5.3456 19.6474 3.6476 18.1175 2.5624 16.0291 C 1.6662 14.3229 1.4619 13.4842 1.4776 11.439 C 1.493 9.8654 1.5561 9.4239 1.9022 8.424 C 3.1442 4.9083 6.1632 2.3337 10.0944 1.495 C 11.3681 1.2305 14.0251 1.3333 15.3149 1.7009 Z M 23.1451 19.8092 L 24.3715 20.9715 L 23.4287 21.8984 L 22.469 22.8395 L 21.211 21.663 L 19.9377 20.5009 L 20.9123 19.5741 C 21.4472 19.0594 21.903 18.6472 21.903 18.6472 C 21.903 18.6472 22.469 19.1622 23.1451 19.8092 Z M 30.5357 24.0317 C 32.5324 25.9437 34.2934 27.7382 34.4351 28.0322 C 35.4574 30.0625 33.7745 32.4746 31.3378 32.4746 C 29.9223 32.4746 29.4349 32.1366 25.567 28.547 C 23.6008 26.7086 21.9817 25.1347 21.9817 25.0609 C 21.9817 24.8694 26.5573 20.5597 26.746 20.5597 C 26.8245 20.5597 28.5228 22.1189 30.5357 24.0317 Z" fill="#0097b2" fill-opacity="1" fill-rule="nonzero" stroke="#262626" stroke-dasharray="none" stroke-linecap="butt" stroke-linejoin="miter" stroke-opacity="1" stroke-width="0.1333"/>
                    </g>
                    <g transform="translate(2.9835 2.8002)">
                        <path d="M 7.3624 0.1956 C 3.8877 0.9021 0.9471 3.6672 0.2082 6.9475 C -0.453 9.8604 0.4753 12.655 2.7865 14.8326 C 6.4813 18.2895 12.142 18.3185 15.7899 14.9059 C 17.7559 13.0524 18.5739 11.2725 18.5893 8.7868 C 18.5893 6.1681 17.6771 4.1528 15.6641 2.3881 C 13.4317 0.4017 10.35 -0.4078 7.3624 0.1956 Z M 11.3714 1.4612 C 12.4882 1.7254 13.8566 2.4761 14.8472 3.3732 C 16.4665 4.8153 17.269 6.5944 17.269 8.7134 C 17.269 11.6402 15.6017 14.1267 12.7399 15.4502 L 11.4032 16.0683 L 9.3276 16.0683 L 7.2519 16.0683 L 5.9154 15.4502 C 0.8838 13.1117 -0.233 7.0067 3.7137 3.4028 C 5.7895 1.5054 8.5888 0.7844 11.3714 1.4612 Z" fill="#0097b2" fill-opacity="1" fill-rule="nonzero" stroke="none" stroke-dasharray="none" stroke-linecap="butt" stroke-linejoin="miter" stroke-opacity="0" stroke-width="0.1333"/>
                    </g>
                </g>
            </g>
            <g transform="translate(11 14)">
                <path d="M 0.00001 0.0001 L 7 0" fill="#0097B2" stroke="#0097b2" stroke-linecap="square" stroke-width="2"/>
            </g>
        </g>
    </g>
</svg>