<svg xmlns="http://www.w3.org/2000/svg" xmlns:xlink="http://www.w3.org/1999/xlink" xmlns:v="http://vecta.io" width="42" height="40" viewBox="0 0 42 40">
    <style>
        <![CDATA[svg{stroke:#000;stroke-linecap:round;stroke-linejoin:round;fill:#fff;fill-rule:evenodd;font-family:Roboto;font-size:14px;text-anchor:middle;}svg text{paint-order:stroke;white-space:pre;}svg .Text\.cls{stroke:none;}]]>
    </style>
    <g transform="translate(1 1)">
        <g>
            <g transform="translate(2 2)">
                <ellipse cx="18" cy="17" rx="18" ry="17" fill="#5CE1E6" stroke="none" stroke-opacity="0" stroke-width="0.5"/>
            </g>
            <g>
                <rect rx="5" x="0" y="0" fill="none" fill-opacity="0" height="38" stroke="#262626" stroke-width="2" width="40"/>
            </g>
        </g>
    </g>
    <g transform="translate(14 9)" fill="#4f4f4f">
        <g>
            <g transform="translate(0 0.4119)">
                <path fill="#4f4f4f" d="M 12.1953 11.5082 L 0.3438 23.2428 C 0.1286 23.022 0 22.7148 0 22.4227 L 0 11.5884 L 0 0.7533 C 0 0.4903 0.1045 0.214 0.2832 0 Z" stroke-linejoin="miter" stroke="none" stroke-width="1" fill-opacity="1"/>
            </g>
            <g transform="translate(0.2835 0)">
                <path fill="#4f4f4f" d="M 11.9119 11.9198 L 15.9222 7.9494 L 2.0845 0.2279 C 1.5878 0.0032 0.9387 -0.0719 0.4806 0.0779 C 0.2904 0.1402 0.1265 0.2603 0 0.4116 Z" stroke="none" stroke-linejoin="miter" stroke-width="1" fill-opacity="1"/>
            </g>
            <g transform="translate(12.1952 7.9492)">
                <path fill="#4f4f4f" d="M 4.0102 0 L 0 3.9708 L 4.1788 8.0076 L 8.5828 5.5503 C 9.6521 4.8756 9.8047 4.6135 9.8047 4.0505 C 9.8047 3.4884 9.6521 3.2263 8.5828 2.5513 Z" stroke="none" stroke-linejoin="miter" stroke-width="1" fill-opacity="1"/>
            </g>
            <g transform="translate(0.3435 11.92)">
                <path fill="#4f4f4f" d="M 0 11.7348 L 11.8519 0 L 16.0303 4.0371 L 2.0247 11.8523 C 1.5279 12.0772 0.8789 12.1521 0.4205 12.0018 C 0.2589 11.949 0.1169 11.8548 0 11.7348 Z" stroke="none" stroke-linejoin="miter" stroke-width="1" fill-opacity="1"/>
            </g>
            <g transform="translate(12.184 7.95)">
                <path fill="#4f4f4f" d="M 4.0103 0 L 0 3.9752 L 4.1634 7.9878 L 8.5939 5.5122 C 9.6634 4.8376 9.8157 4.6121 9.8157 4.05 C 9.8157 3.4879 9.6767 3.2345 8.6074 2.5596 Z" stroke="none" stroke-linejoin="miter" stroke-width="1" fill-opacity="1"/>
            </g>
            <g transform="translate(0.3819 11.92)">
                <path fill="#4f4f4f" d="M 0 11.7053 L 11.8132 0 L 15.9652 4.0175 L 1.9859 11.8175 C 1.4897 12.0424 0.8401 12.1174 0.3817 11.9676 C 0.2208 11.9148 0.1169 11.8251 0 11.7053 Z" stroke="none" stroke-linejoin="miter" stroke-width="1" fill-opacity="1"/>
            </g>
            <g transform="translate(0 0.4118)">
                <path fill="#4f4f4f" d="M 12.1953 11.5082 L 0.3817 23.2135 C 0.1665 22.9923 0 22.6424 0 22.3505 L 0 11.5884 L 0 0.7533 C 0 0.4903 0.1045 0.214 0.2832 0 Z" stroke-linejoin="miter" stroke="none" stroke-width="1" fill-opacity="1"/>
            </g>
        </g>
    </g>
    <g transform="translate(13 8)">
        <g>
            <g transform="translate(0 0.4119)">
                <path fill="#ffffff" d="M 12.1953 11.5082 L 0.3438 23.2428 C 0.1286 23.022 0 22.7148 0 22.4227 L 0 11.5884 L 0 0.7533 C 0 0.4903 0.1045 0.214 0.2832 0 Z" stroke-linejoin="miter" stroke="none" stroke-width="1" fill-opacity="1"/>
            </g>
            <g transform="translate(0.2835 0)">
                <path fill="#ffffff" d="M 11.9119 11.9198 L 15.9222 7.9494 L 2.0845 0.2279 C 1.5878 0.0032 0.9387 -0.0719 0.4806 0.0779 C 0.2904 0.1402 0.1265 0.2603 0 0.4116 Z" stroke="none" stroke-linejoin="miter" stroke-width="1" fill-opacity="1"/>
            </g>
            <g transform="translate(12.1952 7.9492)">
                <path fill="#ffffff" d="M 4.0102 0 L 0 3.9708 L 4.1788 8.0076 L 8.5828 5.5503 C 9.6521 4.8756 9.8047 4.6135 9.8047 4.0505 C 9.8047 3.4884 9.6521 3.2263 8.5828 2.5513 Z" stroke="none" stroke-linejoin="miter" stroke-width="1" fill-opacity="1"/>
            </g>
            <g transform="translate(0.3435 11.92)">
                <path fill="#ffffff" d="M 0 11.7348 L 11.8519 0 L 16.0303 4.0371 L 2.0247 11.8523 C 1.5279 12.0772 0.8789 12.1521 0.4205 12.0018 C 0.2589 11.949 0.1169 11.8548 0 11.7348 Z" stroke="none" stroke-linejoin="miter" stroke-width="1" fill-opacity="1"/>
            </g>
            <g transform="translate(12.184 7.95)">
                <path fill="#ffffff" d="M 4.0103 0 L 0 3.9752 L 4.1634 7.9878 L 8.5939 5.5122 C 9.6634 4.8376 9.8157 4.6121 9.8157 4.05 C 9.8157 3.4879 9.6767 3.2345 8.6074 2.5596 Z" stroke="none" stroke-linejoin="miter" stroke-width="1" fill-opacity="1"/>
            </g>
            <g transform="translate(0.3819 11.92)">
                <path fill="#ffffff" d="M 0 11.7053 L 11.8132 0 L 15.9652 4.0175 L 1.9859 11.8175 C 1.4897 12.0424 0.8401 12.1174 0.3817 11.9676 C 0.2208 11.9148 0.1169 11.8251 0 11.7053 Z" stroke="none" stroke-linejoin="miter" stroke-width="1" fill-opacity="1"/>
            </g>
            <g transform="translate(0 0.4118)">
                <path fill="#ffffff" d="M 12.1953 11.5082 L 0.3817 23.2135 C 0.1665 22.9923 0 22.6424 0 22.3505 L 0 11.5884 L 0 0.7533 C 0 0.4903 0.1045 0.214 0.2832 0 Z" stroke-linejoin="miter" stroke="none" stroke-width="1" fill-opacity="1"/>
            </g>
        </g>
    </g>
</svg>