<svg xmlns="http://www.w3.org/2000/svg" width="37" height="37" stroke="#000" stroke-linecap="round" stroke-linejoin="round" fill="#fff" fill-rule="evenodd">
    <defs>
        <linearGradient id="A" x1="0%" y1="0%" x2="100%" y2="100%">
            <stop offset="0%" stop-color="#52c234"/>
            <stop offset="100%" stop-color="#061700"/>
        </linearGradient>
    </defs>
    <rect x="1" y="1" width="35" height="35" stroke-width="2" fill="none" rx="3" stroke="#4f4f4f"/>
    <path d="M21.0165 31c-.2475 0-.4125-.0508-.7426-.0508h-.9076c-.0825 0-.2475 0-.4125-.0508l-1.4852-.1017c-.2475 0-.4125-.0508-.66-.0508s-.4126.0508-.6601.1017h-.0825c-.165-.1017-.2475-.2033-.2475-.3557V19.7703l.0825-2.0325-.2475-4.1158V9.5569c-.1651 0-.2476-.0508-.4126-.0508h-1.6501c-.4126.0508-1.6502.0508-2.3928.0508H6.5776c-.3301 0-.4951-.0508-.4951-.1524 0-.0508 0-.1017.0825-.1525 0-.1016-.0825-.1524-.0825-.2032C6 8.9472 6 8.8963 6 8.8455c0-.1016.0825-.2032.165-.254.0825-.1525.0825-.3557.2475-.5082.0825-.4573.0825-.9146.0825-1.3719 0-.1016-.0825-.2033-.0825-.2541 0-.1016.0825-.1524.2476-.1524 0 0-.3301 0-.3301-.0508 0 0 .165-.0508.9076-.0508h7.4258l2.5577-.0509 5.9406-.1016h5.8581c.33 0 .5776 0 .9901-.0508h.165c.2475 0 .4951.0508.6601.0508 0 .0508.0825 0 .165 0l-.165.9146c0 .0509 0 .1525.0825.1525v.1524c0 .0508 0 .1017-.0825.1525l-.2475.813c-.0825.0508-.0825.0508-.0825.1524-.0826.0508-.0826.1525-.0826.2033s0 .0508.0826.1016.0825.1016.0825.1524-.0825.0508-.0825.1525c-.0826.0508-.0826.1016-.0826.1524s.0826.0508.0826.1016v.0508c0 .0509-.0826.1017-.1651.1525h-.165c-.33-.0508-.66-.0508-1.0726-.0508l-1.1551.0508H26.132l-4.2904.0508h-.4126c-.0825.0508-.0825.1524-.0825.3049v1.7276l-.0825 3.9126.165 6.6057v5.9959c0 .3049-.0825.6098-.0825.9147 0 .2032 0 .3557.0825.4573v.3049c0 .0508 0 .1524-.0825.254s-.0825.2541-.0825.3557c0 .1525.0825.3049.0825.4573S21.264 31 21.099 31h-.0825z" stroke="url(#A)" fill="url(#A)"/>
</svg>