<svg id="draw.id" overflow="visible" v:ver="5" x="500.5" xmlns="http://www.w3.org/2000/svg" xmlns:v="http://vecta.io" xmlns:xlink="http://www.w3.org/1999/xlink" y="500.5" v:layers="{&quot;default&quot;:{&quot;name&quot;:&quot;Defecto&quot;,&quot;print&quot;:1,&quot;display&quot;:1,&quot;publish&quot;:1}}" v:stencils="{&quot;0&quot;:{&quot;id&quot;:&quot;stencil_25&quot;,&quot;expand&quot;:1,&quot;show_name&quot;:1},&quot;1&quot;:{&quot;id&quot;:&quot;stencil_65&quot;,&quot;expand&quot;:1,&quot;show_name&quot;:1}}"><style xmlns="http://www.w3.org/1999/xhtml"><![CDATA[#draw\.id{stroke:#000;stroke-linecap:round;stroke-linejoin:round;fill:#fff;fill-rule:evenodd;font-family:Roboto;font-size:14px;text-anchor:middle;}#draw\.id text{paint-order:stroke;white-space:pre;}#draw\.id .Text\.cls{stroke:none;}]]></style><defs><style type="text/css">@import url("/fonts/roboto.css"); @import url("/fonts/roboto-condensed.css"); @import url("/fonts/cousine.css"); @import url("/fonts/anonymous-pro.css"); @import url("/fonts/lato.css"); @import url("/fonts/open-sans.css");</style></defs><title xmlns="http://www.w3.org/1999/xhtml">zoomIn</title><desc xmlns="http://www.w3.org/1999/xhtml"></desc><svg height="396.8504047393799" id="ljstrbq03d" overflow="visible" v:setup="{&quot;paper&quot;:&quot;A4&quot;,&quot;unit&quot;:&quot;px&quot;,&quot;scale&quot;:{&quot;from&quot;:1,&quot;to&quot;:1},&quot;width&quot;:1122.5197162628174,&quot;height&quot;:793.7008094787598}" viewBox="0 0 1122.5197162628174 793.7008094787598" width="561.2598581314087"><g id="ljt5zhlqn3" class="Group.cls" transform="translate(-74.99998369607903 0.000018946091387306296)" v:abox="{&quot;x&quot;:-74.99998369607903,&quot;y&quot;:0.000018946091387306296,&quot;width&quot;:295,&quot;height&quot;:285}" fill="none" fill-opacity="0"><g class="Prim.cls"><g id="ljt5zhlwn4" transform="translate(100 20)" class=""><rect rx="15" x="0" y="0" fill="none" height="285" stroke="#000" stroke-width="10" width="295" fill-opacity="0"/></g></g></g><g id="ljstu75dp0" transform="translate(71.448886261128 56.072689922351174)" class=""><ellipse cx="61.84658313928661" cy="65.1817626953125" fill="#5CE1E6" rx="61.84658313928661" ry="65.1817626953125" stroke="#262626" stroke-width="0.5"/></g><g id="ljstw3fvp2" transform="translate(183.17095238186823 176.7780772328864) rotate(30 20.806336175305432 18.349050269189174)" v:formula="{&quot;angle&quot;:&quot;&quot;}" class=""><rect fill="#5CE1E6" height="36.69810298792832" rx="25" stroke="#ff0000" stroke-width="0.5" width="41.61266997947391" x="0" y="0"/></g><g id="ljstsi39ne" class="Group.cls" stroke="#262626" transform="translate(40 30)" v:abox="{&quot;x&quot;:40,&quot;y&quot;:30,&quot;width&quot;:270.0000341050146,&quot;height&quot;:265.5538048957665}"><g class="Prim.cls"><g id="ljstsi22n8" transform="translate(0.000015727669591143576 -0.000012210999828332985)" class=""><path d="M 77.3921 1.0028 C 73.858 1.4663 66.5542 3.4362 61.253 5.4061 C 16.6058 21.3974 -8.8397 68.0966 2.8228 112.478 C 16.7235 165.3188 75.6251 194.4043 126.8694 173.662 C 131.4638 171.6921 136.4114 169.3745 137.825 168.4474 C 140.4167 166.5935 140.7701 166.9411 150.7834 176.6748 L 161.1501 186.7563 L 155.8489 192.0867 L 150.5477 197.4172 L 182.708 228.8203 C 218.8736 264.395 220.5228 265.5538 234.7768 265.5538 C 254.9213 265.5538 270 250.7213 270 230.9061 C 270 217.0007 268.822 215.2624 232.6565 179.6878 L 200.7319 148.0528 L 195.313 153.2674 L 190.0118 158.4818 L 179.7629 148.4004 L 169.6318 138.4349 L 173.5193 130.7869 C 181.2944 115.4909 184.2394 101.7012 183.1792 84.8989 C 182.2368 71.2252 179.9985 62.882 173.6371 50.1353 C 155.9666 14.9082 117.4451 -4.7913 77.3921 1.0028 Z M 114.7357 13.4017 C 142.8905 22.0926 163.7417 43.0667 171.2812 70.414 C 173.755 79.6843 174.1084 99.6155 171.8701 108.654 C 169.6318 117.9243 160.9145 134.9585 155.1421 141.6794 C 130.2857 170.1856 91.0572 178.8764 57.8368 163.2328 C 40.0485 154.7737 27.3258 142.7224 19.1975 126.2675 C 12.4827 112.8256 10.9512 106.2206 11.0689 90.1135 C 11.1869 77.7144 11.658 74.238 14.2496 66.3584 C 23.5562 38.6633 46.1743 18.3846 75.6251 11.7794 C 85.167 9.6937 105.0758 10.5047 114.7357 13.4017 Z M 173.4016 156.0484 L 182.5902 165.2028 L 175.5221 172.5031 L 168.336 179.9194 L 158.9119 170.6492 L 149.3698 161.4948 L 156.6736 154.1944 C 160.6789 150.1386 164.0951 146.894 164.0951 146.894 C 164.0951 146.894 168.336 150.9497 173.4016 156.0484 Z M 228.769 189.3056 C 243.7299 204.3698 256.9239 218.507 257.9841 220.8247 C 265.6414 236.8159 253.0365 255.82 234.7768 255.82 C 224.1746 255.82 220.5228 253.1547 191.5432 224.8804 C 176.8179 210.3955 164.6842 197.9964 164.6842 197.4172 C 164.6842 195.9106 198.9648 161.9582 200.3785 161.9582 C 200.9674 161.9582 213.6903 174.2414 228.769 189.3056 Z" fill="#0097b2" fill-opacity="1" fill-rule="nonzero" stroke="#262626" stroke-linecap="butt" stroke-linejoin="miter" stroke-opacity="1" stroke-width="0.13333333333333333"/></g><g id="ljstsi26n9" transform="translate(22.352383760443058 22.058696689849782)"><path d="M 55.1576 1.5404 C 29.123 7.1024 7.0938 28.8879 1.5572 54.7288 C -3.3906 77.6728 3.5598 99.6897 20.8768 116.8396 C 48.5605 144.0712 90.9696 144.3031 118.2999 117.4189 C 133.0254 102.8184 139.1511 88.7971 139.2689 69.2135 C 139.2689 48.587 132.4363 32.7119 117.3576 18.8063 C 100.6295 3.1627 77.5401 -3.2107 55.1576 1.5404 Z M 85.1973 11.5059 C 93.5613 13.5919 103.8102 19.5015 111.2318 26.57 C 123.3655 37.9263 129.3735 51.9476 129.3735 68.634 C 129.3735 91.6941 116.8863 111.2775 95.4461 121.7067 L 85.4329 126.5735 L 69.8829 126.5735 L 54.3329 126.5735 L 44.3197 121.7067 C 6.6227 103.2819 -1.7413 55.1921 27.8272 26.8019 C 43.3773 11.8535 64.3462 6.1754 85.1973 11.5059 Z" fill="#0097b2" fill-opacity="1" fill-rule="nonzero" stroke="#ff0000" stroke-linecap="butt" stroke-linejoin="miter" stroke-opacity="1" stroke-width="0.13333333333333333"/></g><g id="ljstsi28na" transform="translate(65.72961482947811 64.62012956113895)" class=""><path d="M 21.2044 10.4292 L 21.2044 20.858 L 10.6022 20.858 L 0 20.858 L 0 26.0728 L 0 31.2872 L 10.6022 31.2872 L 21.2044 31.2872 L 21.2044 41.7164 L 21.2044 52.1455 L 26.5057 52.1455 L 31.8068 52.1455 L 31.8068 41.7164 L 31.8068 31.2872 L 42.4091 31.2872 L 53.0113 31.2872 L 53.0113 26.0728 L 53.0113 20.858 L 42.4091 20.858 L 31.8068 20.858 L 31.8068 10.4292 L 31.8068 0 L 26.5057 0 L 21.2044 0 L 21.2044 10.4292 Z" fill="#0097b2" fill-opacity="1" fill-rule="nonzero" stroke="#262626" stroke-linecap="butt" stroke-linejoin="miter" stroke-opacity="1" stroke-width="0.13333333333333333"/></g></g></g></svg></svg>