<svg id="draw.id" overflow="visible" v:ver="5" x="500.5" xmlns="http://www.w3.org/2000/svg" xmlns:v="http://vecta.io" xmlns:xlink="http://www.w3.org/1999/xlink" y="500.5" v:layers="{&quot;default&quot;:{&quot;name&quot;:&quot;Defecto&quot;,&quot;print&quot;:1,&quot;display&quot;:1,&quot;publish&quot;:1}}" v:stencils="{&quot;0&quot;:{&quot;id&quot;:&quot;stencil_25&quot;,&quot;expand&quot;:1,&quot;show_name&quot;:1},&quot;1&quot;:{&quot;id&quot;:&quot;stencil_65&quot;,&quot;expand&quot;:1,&quot;show_name&quot;:1}}"><style xmlns="http://www.w3.org/1999/xhtml"><![CDATA[#draw\.id{stroke:#000;stroke-linecap:round;stroke-linejoin:round;fill:#fff;fill-rule:evenodd;font-family:Roboto;font-size:14px;text-anchor:middle;}#draw\.id text{paint-order:stroke;white-space:pre;}#draw\.id .Text\.cls{stroke:none;}]]></style><defs><style type="text/css">@import url("/fonts/roboto.css"); @import url("/fonts/roboto-condensed.css"); @import url("/fonts/cousine.css"); @import url("/fonts/anonymous-pro.css"); @import url("/fonts/lato.css"); @import url("/fonts/open-sans.css");</style><radialGradient id="R845050505000096d510010000387f100.grad" cx="50%" cy="50%" r="84%" fx="50%" fy="50%"><stop offset="0%" stop-color="#0096d5" stop-opacity="1"/><stop offset="100%" stop-color="#00387f" stop-opacity="1"/></radialGradient></defs><title xmlns="http://www.w3.org/1999/xhtml">zoomOut</title><desc xmlns="http://www.w3.org/1999/xhtml"></desc><svg height="396.8504047393799" id="ljstyoky3d" overflow="visible" v:setup="{&quot;paper&quot;:&quot;A4&quot;,&quot;unit&quot;:&quot;px&quot;,&quot;scale&quot;:{&quot;from&quot;:1,&quot;to&quot;:1},&quot;width&quot;:1122.5197162628174,&quot;height&quot;:793.7008094787598}" viewBox="0 0 1122.5197162628174 793.7008094787598" width="561.2598581314087"><g id="ljt5za0znw" v:abox="{&quot;x&quot;:-80,&quot;y&quot;:0,&quot;width&quot;:295,&quot;height&quot;:285}" class="Group.cls" transform="translate(-80 0)" fill="none" fill-opacity="0"><g class="Prim.cls"><g id="ljt5za11nx" transform="translate(100 20)" class=""><rect rx="15" x="0" y="0" fill="none" height="285" stroke="#000" stroke-width="10" width="295" fill-opacity="0"/></g></g></g><g id="ljsu1o5nox" transform="translate(60.24138185740812 56.056202840362346)" class=""><ellipse cx="62.15964663007032" cy="65.1405029296875" fill="#5CE1E6" rx="62.15964663007032" ry="65.1405029296875" stroke="#262626" stroke-width="0.5"/></g><g id="ljsu306aoz" transform="translate(175.04394416931135 176.96225736032102) rotate(45 19.237331203412275 18.06034200562053)" v:formula="{&quot;angle&quot;:&quot;&quot;}" class=""><rect fill="#5CE1E6" height="36.120685688626025" rx="25" stroke="#262626" stroke-width="0.5" width="38.47466693402019" x="0" y="0"/></g><g id="ljstzht8ne" class="Group.cls" transform="translate(30 30)" v:abox="{&quot;x&quot;:30,&quot;y&quot;:30,&quot;width&quot;:269.9999575645761,&quot;height&quot;:264.27502807547506}"><g class="Prim.cls"><g id="ljstzhrxn8" transform="translate(-0.000009500240748537532 -0.000012625084082578047)" class=""><path d="M 77.8246 1.006 C 63.1433 3.0905 45.5017 11.0811 32.7145 21.272 C 19.2171 32.0418 7.0218 50.8023 2.7595 67.4783 C -4.818 96.6612 3.47 128.3918 24.4266 150.5107 C 52.3688 180.041 94.519 187.8 132.1699 170.3134 L 140.9315 166.2601 L 150.7587 175.872 L 160.7043 185.4839 L 155.3762 190.8109 L 150.0484 196.1379 L 181.7792 226.9422 C 201.0784 245.8185 215.2862 258.6729 218.3646 260.1783 C 229.3758 265.6211 241.0974 265.6211 251.9899 260.2941 C 256.726 257.8622 263.83 250.6822 266.6717 245.3552 C 271.4075 236.2067 271.0523 221.4993 265.8428 212.8139 C 264.422 210.6136 249.1486 194.8641 231.8622 177.8407 L 200.4865 146.8049 L 195.04 152.0161 L 189.5936 157.2273 L 179.8849 147.6155 L 170.0579 138.0037 L 174.7938 128.276 C 180.832 115.4216 183.3184 103.9569 183.3184 89.3655 C 183.3184 34.8212 133.2355 -7.1004 77.8246 1.006 Z M 115.1205 13.6288 C 127.3156 17.3346 138.3268 23.4722 146.97 31.2312 C 178.7008 59.6034 182.7265 107.4311 155.9682 139.9724 C 131.578 169.7343 90.2567 178.304 54.2632 161.0489 C 40.5288 154.4481 26.6762 140.4356 19.4539 125.9599 C 5.4826 97.9351 7.8506 68.4047 26.2025 43.1592 C 38.0424 27.0622 54.2632 16.7555 76.0487 11.7759 C 85.9941 9.5756 104.4645 10.3863 115.1205 13.6288 Z M 173.728 155.4903 L 182.608 164.1757 L 175.1489 171.3556 L 167.8083 178.6514 L 158.6914 169.7343 L 149.4563 160.7015 L 156.5603 153.7532 C 160.4675 149.9316 163.901 146.8049 164.2561 146.8049 C 164.6115 146.8049 168.8737 150.7423 173.728 155.4903 Z M 257.9101 219.0674 C 261.3436 225.3209 261.1069 234.7011 257.5547 241.6494 C 253.8845 248.5977 245.8334 253.5775 237.1902 254.2723 C 225.4686 255.1987 224.1662 254.388 192.9087 223.9313 L 164.2561 196.0222 L 182.2529 178.4197 L 200.3681 160.7015 L 227.955 187.5684 C 243.11 202.3914 256.6077 216.5197 257.9101 219.0674 Z" fill="#0097B2" fill-opacity="1" fill-rule="nonzero" stroke="none" stroke-linecap="butt" stroke-linejoin="miter" stroke-width="0.13333333333333333"/></g><g id="ljstzhs3n9" transform="translate(22.401743195392932 21.932423225568286)" class=""><path d="M 52.1078 2.1188 C 0.1306 15.4365 -17.6295 79.2451 20.3767 116.187 C 29.0199 124.525 37.7815 129.8522 49.503 133.6738 C 54.4758 135.4107 59.3302 135.8739 70.2229 135.7582 C 82.773 135.7582 85.4964 135.295 93.3108 132.5157 C 111.1891 125.9149 124.805 113.7553 132.501 97.6583 C 137.7105 86.7726 139.4864 79.0137 139.4864 68.1279 C 139.4864 56.8947 137.5921 49.3675 132.1457 38.1343 C 126.3441 26.3222 114.5042 14.0469 103.1379 8.1408 C 87.6275 0.1501 68.6837 -2.166 52.1078 2.1188 Z M 86.2069 12.1939 C 108.8211 18.2158 125.5154 37.2079 129.0671 60.6005 C 130.6065 71.602 128.7122 83.2983 123.3841 94.2998 C 118.885 103.6801 105.861 116.303 95.5602 121.1667 C 79.4579 128.8098 60.8694 128.8098 44.4118 121.0509 C 10.076 105.0698 -0.6982 63.264 21.7976 33.3863 C 36.4791 13.931 61.6982 5.5931 86.2069 12.1939 Z" fill="#0097B2" fill-opacity="1" fill-rule="nonzero" stroke="none" stroke-linecap="butt" stroke-linejoin="miter" stroke-width="0.13333333333333333"/></g><g id="ljstzhs4na" transform="translate(65.9847612344653 85.42807364842197)" class=""><path d="M 0 4.6321 L 0 9.2643 L 26.6397 9.2643 L 53.2798 9.2643 L 53.2798 4.6321 L 53.2798 0 L 26.6397 0 L 0 0 L 0 4.6321 Z" fill="#0097B2" fill-opacity="1" fill-rule="nonzero" stroke="none" stroke-linecap="butt" stroke-linejoin="miter" stroke-width="0.13333333333333333"/></g></g></g></svg></svg>