<svg xmlns="http://www.w3.org/2000/svg" xmlns:xlink="http://www.w3.org/1999/xlink" xmlns:v="http://vecta.io" width="50" height="38" viewBox="0 0 50 38">
    <style>
        <![CDATA[svg{stroke:#000;stroke-linecap:round;stroke-linejoin:round;fill:#fff;fill-rule:evenodd;font-family:Roboto;font-size:14px;text-anchor:middle;}svg text{paint-order:stroke;white-space:pre;}svg .Text\.cls{stroke:none;}]]>
    </style>
    <defs>
        <linearGradient id="L001001000ffffff100100c7c7c7100.grad" x1="0%" y1="0%" x2="100%" y2="100%">
            <stop offset="0%" stop-color="#ffffff" stop-opacity="1"/>
            <stop offset="100%" stop-color="#c7c7c7" stop-opacity="1"/>
        </linearGradient>
    </defs>
    <g fill="url(#L001001000ffffff100100c7c7c7100.grad)" transform="translate(1 1)" stroke-width="2">
        <g>
            <g>
                <path d="M 16.4702 4.0094 C 8.2078 1.9829 3.7144 7.3257 4.439 12.1154 L 4.439 12.2998 C -2.0834 13.7733 -0.3441 23.5376 2.845 23.5376 L 3.135 23.5376 C 2.2651 28.1428 9.9469 32.7488 14.151 30.3539 L 14.4409 29.9853 C 15.8904 34.2223 21.3979 34.7752 26.6162 34.9599 C 31.2548 35.1443 33.8636 34.7752 35.8931 32.1958 L 36.1827 32.1958 C 43.5749 32.9326 46.9092 26.4853 45.3145 21.8793 L 45.7497 21.6949 C 48.2137 20.9579 48.5033 13.5885 44.155 12.4838 L 44.3005 12.115 C 46.1846 7.3248 41.6914 2.904 35.6032 3.6408 L 35.1689 3.456 C 30.82 -1.7017 18.2095 -0.7807 16.76 4.1938 Z" fill="url(#L001001000ffffff100100c7c7c7100.grad)" fill-opacity="1" stroke="none" stroke-width="2"/>
            </g>
            <g>
                <path d="M 16.4702 4.0094 C 8.2078 1.9829 3.7144 7.3257 4.439 12.1154 L 4.439 12.2998 C -2.0834 13.7733 -0.3441 23.5376 2.845 23.5376 L 3.135 23.5376 C 2.2651 28.1428 9.9469 32.7488 14.151 30.3539 L 14.4409 29.9853 C 15.8904 34.2223 21.3979 34.7752 26.6162 34.9599 C 31.2548 35.1443 33.8636 34.7752 35.8931 32.1958 L 36.1827 32.1958 C 43.5749 32.9326 46.9092 26.4853 45.3145 21.8793 L 45.7497 21.6949 C 48.2137 20.9579 48.5033 13.5885 44.155 12.4838 L 44.3005 12.115 C 46.1846 7.3248 41.6914 2.904 35.6032 3.6408 L 35.1689 3.456 C 30.82 -1.7017 18.2095 -0.7807 16.76 4.1938 Z" fill="url(#L001001000ffffff100100c7c7c7100.grad)" fill-opacity="1" stroke="#0f73a0" stroke-width="2"/>
            </g>
        </g>
    </g>
</svg>