<svg xmlns="http://www.w3.org/2000/svg" xmlns:xlink="http://www.w3.org/1999/xlink" xmlns:v="http://vecta.io" width="40" height="40" viewBox="0 0 40 40">
    <style>
        <![CDATA[svg{stroke:#000;stroke-linecap:round;stroke-linejoin:round;fill:#fff;fill-rule:evenodd;font-family:Roboto;font-size:14px;text-anchor:middle}svg text{paint-order:stroke;white-space:pre}svg .Text\.cls{stroke:none}]]>
    </style>
    <defs>
        <radialGradient id="R845050505000096d510000387f.grad" cx="50%" cy="50%" r="84%" fx="50%" fy="50%">
            <stop offset="0%" stop-color="#0096d5"/>
            <stop offset="100%" stop-color="#00387f"/>
        </radialGradient>
    </defs>
    <g transform="translate(0 0)">
        <g >
            <g>
                <g >
                    <g transform="translate(0 11.3947)">
                        <path d="M 40 0 C 40 6.3836 31.0204 11.5704 19.864 11.5704 C 8.9796 11.5704 0 6.3836 0 0 L 0 16.7571 C 0 23.1406 8.9796 28.3273 19.864 28.3273 C 31.0204 28.3273 40 23.1406 40 16.7571 Z" stroke="none" fill="url(#R845050505000096d510000387f.grad)"/>
                    </g>
                    <g transform="translate(0 0.2234)">
                        <path d="M 19.864 22.7417 C 31.0204 22.7417 40 17.555 40 11.1714 C 40 5.1867 31.0204 0 19.864 0 C 8.9796 0 0 5.1867 0 11.1714 C 0 17.555 8.9796 22.7417 19.864 22.7417 Z" stroke="none" fill="#000000"/>
                    </g>
                    <g>
                        <path d="M 19.864 22.7416 C 31.0204 22.7416 40 17.555 40 11.5704 C 40 5.1867 31.0204 0 19.864 0 C 8.9796 0 0 5.1867 0 11.5704 C 0 17.555 8.9796 22.7416 19.864 22.7416 Z" stroke="none" fill="#0096d5" fill-opacity="0.92"/>
                    </g>
                </g>
            </g>
            <g transform="translate(11.8307 23.4822)">
                <path d="M 2.9297 0 L 2.9297 11.8652 L 9.1504 11.8652 L 9.1504 14.2188 L 0 14.2188 L 0 0 L 2.9297 0 Z" stroke-width="0.5" stroke="#ffffff" stroke-opacity="1" fill="#e0e0e0" fill-opacity="1"/>
            </g>
            <g transform="translate(22.0163 23.2869)">
                <path d="M 3.2129 8.2617 L 3.2129 6.0547 L 4.7168 6.0547 Q 5.791 6.0547 6.3086 5.5176 Q 6.8262 4.9805 6.8262 4.0918 Q 6.8262 3.2324 6.3135 2.7539 Q 5.8008 2.2754 4.9023 2.2754 Q 4.0918 2.2754 3.5449 2.7197 Q 2.998 3.1641 2.998 3.877 L 0.1758 3.877 Q 0.1758 2.7637 0.7764 1.8799 Q 1.377 0.9961 2.4561 0.498 Q 3.5352 0 4.834 0 Q 7.0898 0 8.3691 1.0791 Q 9.6484 2.1582 9.6484 4.0527 Q 9.6484 5.0293 9.0527 5.8496 Q 8.457 6.6699 7.4902 7.1094 Q 8.6914 7.5391 9.2822 8.3984 Q 9.873 9.2578 9.873 10.4297 Q 9.873 12.3242 8.4912 13.4668 Q 7.1094 14.6094 4.834 14.6094 Q 2.7051 14.6094 1.3525 13.4863 Q 0 12.3633 0 10.5176 L 2.8223 10.5176 Q 2.8223 11.3184 3.4229 11.8262 Q 4.0234 12.334 4.9023 12.334 Q 5.9082 12.334 6.4795 11.8018 Q 7.0508 11.2695 7.0508 10.3906 Q 7.0508 8.2617 4.707 8.2617 L 3.2129 8.2617 Z" stroke-width="0.5" stroke="#ffffff" stroke-opacity="1" fill="#e0e0e0" fill-opacity="1"/>
            </g>
        </g>
    </g>
</svg>