<svg xmlns="http://www.w3.org/2000/svg" xmlns:xlink="http://www.w3.org/1999/xlink" xmlns:v="http://vecta.io" width="40" height="32" viewBox="0 0 40 32">
    <style>
        <![CDATA[svg{stroke:#000;stroke-linecap:round;stroke-linejoin:round;fill:#fff;fill-rule:evenodd;font-family:Roboto;font-size:14px;text-anchor:middle}svg text{paint-order:stroke;white-space:pre}svg .Text\.cls{stroke:none}]]>
    </style>
    <defs>
        <radialGradient id="R845050505000096d510000387f.grad" cx="50%" cy="50%" r="84%" fx="50%" fy="50%">
            <stop offset="0%" stop-color="#0096d5"/>
            <stop offset="100%" stop-color="#00387f"/>
        </radialGradient>
    </defs>
    <g transform="translate(0 0)">
        <g >
            <g>
                <g >
                    <g transform="translate(0 9.1321)">
                        <path d="M 39.5046 0 C 39.5046 5.116 30.6363 9.2729 19.6179 9.2729 C 8.8684 9.2729 0 5.116 0 0 L 0 13.4296 C 0 18.5456 8.8684 22.7023 19.6179 22.7023 C 30.6363 22.7023 39.5046 18.5456 39.5046 13.4296 Z" stroke="none" fill="url(#R845050505000096d510000387f.grad)"/>
                    </g>
                    <g transform="translate(0 0.179)">
                        <path d="M 19.4329 18.2259 C 30.3472 18.2259 39.1319 14.0691 39.1319 8.953 C 39.1319 4.1568 30.3472 0 19.4329 0 C 8.7848 0 0 4.1568 0 8.953 C 0 14.0691 8.7848 18.2259 19.4329 18.2259 Z" stroke="none" fill="#000000" stroke-width="1.000000476837272"/>
                    </g>
                    <g>
                        <path d="M 19.4329 18.2259 C 30.3472 18.2259 39.1319 14.0691 39.1319 9.2729 C 39.1319 4.1568 30.3472 0 19.4329 0 C 8.7848 0 0 4.1568 0 9.2729 C 0 14.0691 8.7848 18.2259 19.4329 18.2259 Z" stroke="none" fill="#0096d5" fill-opacity="0.92"/>
                    </g>
                    <g transform="translate(2.3989 1.5936)">
                        <path d="M 12.778 3.5174 L 14.3751 6.3951 L 8.2524 8.3136 L 9.5835 6.7148 L 0 4.7963 L 2.3959 2.8777 L 11.4469 4.7963 L 12.778 3.5174 Z M 21.2964 10.5519 L 20.2317 7.6743 L 25.8221 6.3951 L 24.7572 7.3544 L 33.8082 9.2729 L 31.6786 11.5112 L 22.6276 9.2729 L 21.2964 10.5519 Z M 18.3683 1.9186 L 24.491 0 L 24.491 3.1974 L 22.8938 2.8777 L 19.9656 5.7556 L 17.0372 5.4359 L 20.2317 2.2383 L 18.3683 1.9186 Z M 15.7062 13.4297 L 9.8497 14.7088 L 9.5835 11.5112 L 11.1807 11.831 L 14.3751 8.6335 L 17.3035 9.2729 L 13.8428 12.7903 L 15.7062 13.4297 Z" stroke="#ffffff" stroke-linejoin="miter" stroke-width="0.39350000000000007" fill="#e0e0e0" fill-opacity="1" stroke-opacity="1"/>
                    </g>
                </g>
            </g>
            <g transform="translate(5.6633 20.525)">
                <path d="M 5.7813 0 L 5.7813 7.1094 L 4.3164 7.1094 L 1.4648 2.4316 L 1.4648 7.1094 L 0 7.1094 L 0 0 L 1.4648 0 L 4.3213 4.6875 L 4.3213 0 L 5.7813 0 Z" stroke-width="0.5" stroke="#ffffff" stroke-opacity="1" fill="#e0e0e0" fill-opacity="1"/>
            </g>
            <g transform="translate(12.2111 20.525)">
                <path d="M 5.1074 7.1094 L 4.6143 5.6445 L 2.0459 5.6445 L 1.5576 7.1094 L 0 7.1094 L 2.6465 0 L 4.0039 0 L 6.665 7.1094 L 5.1074 7.1094 Z M 3.3252 1.7969 L 2.4414 4.458 L 4.2188 4.458 L 3.3252 1.7969 Z" stroke-width="0.5" stroke="#ffffff" stroke-opacity="1" fill="#e0e0e0" fill-opacity="1"/>
            </g>
            <g transform="translate(18.5148 20.525)">
                <path d="M 5.791 0 L 5.791 1.1865 L 3.6133 1.1865 L 3.6133 7.1094 L 2.1484 7.1094 L 2.1484 1.1865 L 0 1.1865 L 0 0 L 5.791 0 Z" stroke-width="0.5" stroke="#ffffff" stroke-opacity="1" fill="#e0e0e0" fill-opacity="1"/>
            </g>
            <g transform="translate(24.9944 20.4518)">
                <path d="M 3.5889 0 L 3.8232 0 L 3.8232 1.1621 L 3.6865 1.1621 Q 2.7295 1.1768 2.146 1.6602 Q 1.5625 2.1436 1.4453 3.0029 Q 2.0117 2.4268 2.876 2.4268 Q 3.8037 2.4268 4.3506 3.0908 Q 4.8975 3.7549 4.8975 4.8389 Q 4.8975 5.5322 4.5972 6.0938 Q 4.2969 6.6553 3.7476 6.9678 Q 3.1982 7.2803 2.5049 7.2803 Q 1.3818 7.2803 0.6909 6.499 Q 0 5.7178 0 4.4141 L 0 3.9063 Q 0 2.749 0.437 1.8628 Q 0.874 0.9766 1.6919 0.4907 Q 2.5098 0.0049 3.5889 0 Z M 2.4463 3.5596 Q 2.1045 3.5596 1.8262 3.7378 Q 1.5479 3.916 1.416 4.209 L 1.416 4.6387 Q 1.416 5.3467 1.6943 5.7446 Q 1.9727 6.1426 2.4756 6.1426 Q 2.9297 6.1426 3.2104 5.7837 Q 3.4912 5.4248 3.4912 4.8535 Q 3.4912 4.2725 3.208 3.916 Q 2.9248 3.5596 2.4463 3.5596 Z" stroke-width="0.5" stroke="#ffffff" stroke-opacity="1" fill="#e0e0e0" fill-opacity="1"/>
            </g>
            <g transform="translate(30.5118 20.525)">
                <path d="M 4.3896 0 L 4.3896 4.4336 L 5.1953 4.4336 L 5.1953 5.5713 L 4.3896 5.5713 L 4.3896 7.1094 L 2.9785 7.1094 L 2.9785 5.5713 L 0.0635 5.5713 L 0 4.6826 L 2.9639 0 L 4.3896 0 Z M 2.8857 2.085 L 1.4063 4.4336 L 2.9785 4.4336 L 2.9785 1.9238 L 2.8857 2.085 Z" stroke-width="0.5" stroke="#ffffff" stroke-opacity="1" fill="#e0e0e0" fill-opacity="1"/>
            </g>
        </g>
    </g>
</svg>