<svg xmlns="http://www.w3.org/2000/svg" xmlns:xlink="http://www.w3.org/1999/xlink" xmlns:v="http://vecta.io" width="41" height="30" viewBox="0 0 41 30">
    <style>
        <![CDATA[svg{stroke:#000;stroke-linecap:round;stroke-linejoin:round;fill:#fff;fill-rule:evenodd;font-family:Roboto;font-size:14px;text-anchor:middle}svg text{paint-order:stroke;white-space:pre}svg .Text\.cls{stroke:none}]]>
    </style>
    <defs>
        <radialGradient id="R845050505000096d510000387f.grad" cx="50%" cy="50%" r="84%" fx="50%" fy="50%">
            <stop offset="0%" stop-color="#0096d5"/>
            <stop offset="100%" stop-color="#00387f"/>
        </radialGradient>
    </defs>
    <g>
        <g >
            <g>
                <g >
                    <g transform="translate(0.0031 15.0584)">
                        <path d="M 30.1656 14.3716 L 30.1656 0 L 0 0 L 0 14.3716 L 30.1656 14.3716 Z M 6.5855 7.5523 Q 7.273 7.2251 7.6095 6.6828 Q 7.9464 6.1399 7.9464 5.3255 Q 7.9464 4.1837 7.2115 3.553 Q 6.4766 2.9302 5.1294 2.9302 L 2.299 2.9277 L 2.299 10.8745 L 3.8688 10.8745 L 3.8688 7.9654 L 5.1194 7.9654 L 6.548 10.8745 L 8.2329 10.8745 L 8.2329 10.798 Z" stroke="none" fill="#0096d5"/>
                    </g>
                    <g transform="translate(0.0765 0)">
                        <path d="M 0 14.5601 L 12.2351 0 L 40.2911 0 L 30.1656 14.5601 L 0 14.5601 Z M 30.3766 29.4301 L 40.2911 13.321 L 40.2911 0 L 30.3766 14.5601 L 30.3766 29.4301 Z" stroke="none" fill="url(#R845050505000096d510000387f.grad)"/>
                    </g>
                    <g transform="translate(0 13.5051)">
                        <path d="M 0 0 L 30.1656 0 L 30.1656 15.1634 L 0 15.1634 Z" stroke="none" fill="none"/>
                    </g>
                    <g transform="translate(4.6546 0.6867)">
                        <path d="M 12.8532 10.6457 L 12.1115 11.3554 L 3.4604 11.3554 L 2.4718 12.7748 L 0 11.3554 L 4.9434 9.2262 L 3.9548 10.6457 L 12.8532 10.6457 Z M 19.774 4.2582 L 19.0325 5.3229 L 10.3813 5.3229 L 9.3927 6.3873 L 6.9209 4.968 L 11.8644 3.1937 L 10.8757 4.2582 L 19.774 4.2582 Z M 14.3362 8.5166 L 15.0776 7.8068 L 23.9759 7.8068 L 24.7175 6.3873 L 27.1893 7.8068 L 22.4929 9.9359 L 23.2344 8.5166 L 14.3362 8.5166 Z M 19.0325 2.1291 L 19.774 1.4194 L 28.4251 1.4194 L 29.4138 0 L 31.8856 1.7743 L 26.9421 3.5486 L 27.9308 2.1291 L 19.0325 2.1291 Z" stroke="#ffffff" stroke-linejoin="miter" stroke-linecap="square" fill="#e0e0e0" stroke-width="0.39350000000000007"/>
                    </g>
                    <g transform="translate(0.5626 15.0584)">
                        <path d="M 0 0 L 29.0882 0 L 29.0882 13.5732 L 0 13.5732 Z" stroke="#ffffff" stroke-opacity="0" fill="#0096d5" stroke-width="0.5"/>
                    </g>
                </g>
            </g>
            <g transform="translate(4.3533 18.4166)">
                <path fill="#e0e0e0" d="M 3.5684 6.3984 L 2.3687 4.0562 L 1.3184 4.0562 L 1.3184 6.3984 L 0 6.3984 L 0 0 L 2.3774 0 Q 3.5112 0 4.1265 0.5054 Q 4.7417 1.0107 4.7417 1.9336 Q 4.7417 2.5884 4.4583 3.0256 Q 4.1748 3.4629 3.5991 3.7222 L 4.9834 6.3369 L 4.9834 6.3984 L 3.5684 6.3984 Z M 1.3184 1.0679 L 1.3184 2.9883 L 2.3818 2.9883 Q 2.8784 2.9883 3.1509 2.7356 Q 3.4233 2.4829 3.4233 2.0391 Q 3.4233 1.5864 3.1663 1.3271 Q 2.9092 1.0679 2.3774 1.0679 L 1.3184 1.0679 Z" stroke-width="0.5" stroke="#ffffff"/>
            </g>
            <g transform="translate(9.8289 18.3287)">
                <path fill="#e0e0e0" d="M 3.5859 4.8076 Q 3.5859 4.4341 3.3223 4.2341 Q 3.0586 4.0342 2.373 3.8123 Q 1.6875 3.5903 1.2876 3.375 Q 0.1978 2.7861 0.1978 1.7886 Q 0.1978 1.27 0.49 0.8635 Q 0.7822 0.457 1.3293 0.2285 Q 1.8765 0 2.5576 0 Q 3.2432 0 3.7793 0.2483 Q 4.3154 0.4966 4.6121 0.9492 Q 4.9087 1.4019 4.9087 1.9775 L 3.5903 1.9775 Q 3.5903 1.5381 3.3135 1.2942 Q 3.0366 1.0503 2.5356 1.0503 Q 2.0522 1.0503 1.7842 1.2546 Q 1.5161 1.459 1.5161 1.793 Q 1.5161 2.105 1.8303 2.3159 Q 2.1445 2.5269 2.7554 2.7114 Q 3.8804 3.0498 4.3945 3.5508 Q 4.9087 4.0518 4.9087 4.7988 Q 4.9087 5.6294 4.2803 6.1018 Q 3.6519 6.5742 2.5884 6.5742 Q 1.8501 6.5742 1.2437 6.304 Q 0.6372 6.0337 0.3186 5.5635 Q 0 5.0933 0 4.4736 L 1.3228 4.4736 Q 1.3228 5.5327 2.5884 5.5327 Q 3.0586 5.5327 3.3223 5.3416 Q 3.5859 5.1504 3.5859 4.8076 Z" stroke-width="0.5" stroke="#ffffff"/>
            </g>
            <g transform="translate(15.2341 18.4166)">
                <path fill="#e0e0e0" d="M 5.2119 0 L 5.2119 1.0679 L 3.252 1.0679 L 3.252 6.3984 L 1.9336 6.3984 L 1.9336 1.0679 L 0 1.0679 L 0 0 L 5.2119 0 Z" stroke-width="0.5" stroke="#ffffff"/>
            </g>
            <g transform="translate(21.1975 18.4166)">
                <path fill="#e0e0e0" d="M 2.4741 4.144 L 1.3184 4.144 L 1.3184 6.3984 L 0 6.3984 L 0 0 L 2.4961 0 Q 3.2168 0 3.7639 0.2637 Q 4.311 0.5273 4.6055 1.0129 Q 4.8999 1.4985 4.8999 2.1182 Q 4.8999 3.0586 4.2561 3.6013 Q 3.6123 4.144 2.4741 4.144 Z M 1.3184 1.0679 L 1.3184 3.0762 L 2.4961 3.0762 Q 3.019 3.0762 3.2937 2.8301 Q 3.5684 2.584 3.5684 2.127 Q 3.5684 1.6567 3.2915 1.3667 Q 3.0146 1.0767 2.5269 1.0679 L 1.3184 1.0679 Z" stroke-width="0.5" stroke="#ffffff"/>
            </g>
        </g>
    </g>
</svg>